<svg width="300" height="300" viewBox="0 0 300 300" fill="none" xmlns="http://www.w3.org/2000/svg">
    <path fill-rule="evenodd" clip-rule="evenodd" d="M91.1216 60.9609C88.7989 60.9609 86.916 62.8439 86.916 65.1666V199.483C103.034 195.547 121.375 193.237 141.923 193.237C170.161 193.237 193.64 196.014 213.084 200.584V65.1665C213.084 62.8439 211.201 60.9609 208.879 60.9609H91.1216Z" fill="url(#paint0_linear_1128_40200)"/>
    <rect opacity="0.800525" x="94.8018" y="68.8447" width="110.397" height="138.759" rx="4.20561" fill="url(#paint1_linear_1128_40200)"/>
    <rect x="102.337" y="79.708" width="94.6262" height="61.4954" fill="url(#paint2_linear_1128_40200)"/>
    <rect x="102.687" y="150.839" width="94.6262" height="9.46083" fill="url(#paint3_linear_1128_40200)"/>
    <rect x="102.687" y="172.914" width="94.6262" height="9.46083" fill="url(#paint4_linear_1128_40200)"/>
    <path fill-rule="evenodd" clip-rule="evenodd" d="M173.251 153.992C175.163 154.037 176.91 152.937 177.662 151.215C178.413 149.493 178.018 147.496 176.663 146.174L164.72 134.449C162.892 132.659 159.928 132.659 158.1 134.449C156.273 136.238 156.273 139.14 158.1 140.93L170.077 152.622C170.914 153.463 172.052 153.954 173.251 153.992Z" fill="url(#paint5_linear_1128_40200)"/>
    <path fill-rule="evenodd" clip-rule="evenodd" d="M128.578 136.283C120.882 128.628 119.772 116.711 125.927 107.816C132.081 98.9217 143.788 95.5253 153.89 99.7034C163.992 103.882 169.678 114.471 167.472 124.999C165.266 135.527 155.782 143.062 144.818 143C138.71 142.961 132.868 140.545 128.578 136.283Z" fill="url(#paint6_linear_1128_40200)"/>
    <path fill-rule="evenodd" clip-rule="evenodd" d="M131.627 107.434C124.358 114.572 124.365 126.134 131.643 133.264C138.92 140.393 150.716 140.393 157.993 133.264C165.271 126.134 165.278 114.572 158.008 107.434C150.719 100.303 138.916 100.303 131.627 107.434Z" fill="white"/>
    <mask id="mask0_1128_40200" style="mask-type:luminance" maskUnits="userSpaceOnUse" x="126" y="102" width="38" height="37">
        <path fill-rule="evenodd" clip-rule="evenodd" d="M131.627 107.434C124.358 114.572 124.365 126.134 131.643 133.264C138.92 140.393 150.716 140.393 157.993 133.264C165.271 126.134 165.278 114.572 158.008 107.434C150.719 100.303 138.916 100.303 131.627 107.434Z" fill="white"/>
    </mask>
    <g mask="url(#mask0_1128_40200)">
        <path d="M161.712 107.075C161.712 124.79 153.083 138.473 140.742 146.201C128.401 153.928 163.441 141.203 163.441 141.203L170.366 116.823C170.366 116.823 161.712 89.3608 161.712 107.075Z" fill="url(#paint7_linear_1128_40200)"/>
    </g>
    <path d="M298.752 279.152C305.987 264.833 285.308 193.237 141.923 193.237C38.4274 193.237 -9.07413 251.84 1.42751 281.538L298.752 279.152Z" fill="url(#paint8_radial_1128_40200)"/>
    <mask id="mask1_1128_40200" style="mask-type:luminance" maskUnits="userSpaceOnUse" x="0" y="193" width="300" height="89">
        <path d="M298.752 279.152C305.987 264.833 285.308 193.237 141.923 193.237C38.4274 193.237 -9.07413 251.84 1.42751 281.538L298.752 279.152Z" fill="white"/>
    </mask>
    <g mask="url(#mask1_1128_40200)">
        <ellipse opacity="0.671968" cx="132.652" cy="210.232" rx="7.88551" ry="4.38001" fill="url(#paint9_linear_1128_40200)"/>
        <ellipse opacity="0.729957" cx="200.292" cy="226.701" rx="12.4416" ry="6.83282" fill="url(#paint10_linear_1128_40200)"/>
        <ellipse opacity="0.729957" cx="58.7033" cy="208.479" rx="12.4416" ry="6.83282" fill="url(#paint11_linear_1128_40200)"/>
    </g>
    <path d="M200.062 206.983L226.941 217.488L233.114 208.656L206.071 202.368L200.062 206.983Z" fill="url(#paint12_linear_1128_40200)"/>
    <path d="M198.6 162L217.066 163.456L212.965 203.623C212.965 203.623 212.606 204.025 211.735 203.869C210.864 203.713 209.95 203.228 209.95 203.228L207.203 171.296C207.203 171.296 205.615 182.587 205.726 185.764C205.809 188.157 206.628 191.077 207.066 193.575C207.443 195.724 208.236 200.861 208.236 200.861C208.236 200.861 207.299 201.289 206.8 201.385C206.302 201.482 205.663 200.95 205.663 200.95C205.663 200.95 199.188 188.382 199.105 185.995C199.022 183.608 198.6 162 198.6 162Z" fill="url(#paint13_linear_1128_40200)"/>
    <path d="M205.375 200.892C205.375 200.892 204.553 202.373 203.531 203.276C202.509 204.178 200.493 205.257 200.033 205.747C199.574 206.236 200.076 206.958 200.076 206.958L205.017 206.786L208.966 203.445L208.414 200.262L205.375 200.892Z" fill="#677285"/>
    <path d="M213.43 202.606L214.584 205.806C214.584 205.806 212.69 207.273 210.072 207.682C207.455 208.09 205.651 207.463 205.651 207.463C205.651 207.463 205.178 206.51 206.069 206.103C206.478 205.916 207.395 205.139 208.2 204.145C208.564 203.695 209.932 202.729 209.932 202.729L213.43 202.606Z" fill="#677285"/>
    <path d="M221.702 141.058C221.702 141.058 223.215 143.361 224.144 142.745C225.072 142.129 230.865 136.19 230.865 136.19C230.865 136.19 232.589 134.863 232.908 135.179C233.226 135.494 232.333 136.19 232.333 136.19C232.333 136.19 234.213 136.375 234.801 136.375C235.389 136.375 236.625 137.313 235.817 137.629C235.008 137.945 231.873 138.023 231.873 138.023C231.873 138.023 227.113 147.024 224.633 147.662C222.153 148.3 218.735 144.691 218.735 144.691L221.702 141.058Z" fill="#FDE7E6"/>
    <path d="M197.52 141.223C197.52 141.223 196.527 143.255 195.628 142.768C194.729 142.28 189.683 136.959 189.683 136.959C189.683 136.959 188.002 135.93 187.592 136.115C187.181 136.3 188.194 136.959 188.194 136.959C188.194 136.959 185.721 137.16 185.256 137.347C184.791 137.534 184.25 138.107 184.953 138.367C185.656 138.628 188.348 138.813 188.348 138.813C188.348 138.813 192.089 146.207 194.924 147.072C197.759 147.937 200.175 144.53 200.175 144.53L197.52 141.223Z" fill="#FDE7E6"/>
    <path d="M206.699 135V131.368C206.699 131.368 204.815 131.463 204.05 130.202C203.284 128.94 203.077 125.361 203.077 125.361L203.654 123.702L209.327 123.462L212.308 126.002L210.92 128.453L210.656 128.924L211.978 134.494L206.699 135Z" fill="#FDE7E6"/>
    <mask id="mask2_1128_40200" style="mask-type:luminance" maskUnits="userSpaceOnUse" x="203" y="123" width="10" height="13">
        <path d="M206.699 135V131.368C206.699 131.368 204.815 131.463 204.05 130.202C203.284 128.94 203.077 125.361 203.077 125.361L203.654 123.702L209.327 123.462L212.308 126.002L210.92 128.453L210.656 128.924L211.978 134.494L206.699 135Z" fill="white"/>
    </mask>
    <g mask="url(#mask2_1128_40200)">
        <path d="M210.389 127.916C208.712 130.001 205.812 131.458 205.435 131.458C205.057 131.458 207.543 134.073 207.543 134.073L209.566 135.001L212.437 134.392L213.462 131.458L211.652 128.129C211.652 128.129 212.065 125.83 210.389 127.916Z" fill="url(#paint14_linear_1128_40200)"/>
    </g>
    <path d="M196.313 142.683L199.101 146.438L200.88 144.56C200.88 144.56 199.527 151.975 199.101 155.531C198.676 159.087 198.597 162.629 198.597 162.629C198.597 162.629 203.061 164.287 206.389 164.565C209.716 164.844 217.464 164.126 217.464 164.126L216.464 143.254L219.365 145.948L222.772 142.014C222.772 142.014 216.907 133.001 215.798 132.476C214.689 131.951 211.606 132.476 211.606 132.476C211.606 132.476 209.418 135.065 208.531 135.102C207.644 135.138 205.676 132.476 205.676 132.476C205.676 132.476 202.532 131.974 201.618 133.001C200.704 134.029 196.313 142.683 196.313 142.683Z" fill="url(#paint15_linear_1128_40200)"/>
    <path d="M203.077 125.402C203.077 125.402 203.746 123.714 204.618 124.008C205.444 124.287 206.16 124.948 207.187 125.259C208.215 125.57 208.328 124.174 209.027 124.41C209.725 124.645 209.264 126.699 209.756 127.081C210.248 127.464 210.248 124.41 211.298 125.232C212.347 126.054 210.203 128.368 210.203 128.368C210.203 128.368 210.478 129.791 210.566 129.887C210.654 129.984 210.644 128.853 210.644 128.853C210.644 128.853 211.646 128.468 212.073 126.733C212.5 124.998 212.685 124.308 212.073 123.047C211.461 121.787 211.287 120.799 209.756 120.205C208.225 119.61 207.064 119.843 205.994 120.205C204.924 120.567 204.149 121.286 203.654 122.002C202.5 123.701 203.077 125.402 203.077 125.402Z" fill="#4D364F"/>
    <defs>
        <linearGradient id="paint0_linear_1128_40200" x1="170.913" y1="190.096" x2="170.913" y2="148.378" gradientUnits="userSpaceOnUse">
            <stop stop-color="#F7F7F7"/>
            <stop offset="1" stop-color="#E8EAEB"/>
        </linearGradient>
        <linearGradient id="paint1_linear_1128_40200" x1="94.8018" y1="68.8447" x2="94.8018" y2="207.604" gradientUnits="userSpaceOnUse">
            <stop stop-color="white"/>
            <stop offset="0.746404" stop-color="white"/>
            <stop offset="1" stop-color="white" stop-opacity="0.697577"/>
        </linearGradient>
        <linearGradient id="paint2_linear_1128_40200" x1="102.337" y1="79.708" x2="102.337" y2="141.203" gradientUnits="userSpaceOnUse">
            <stop stop-color="#E8EAEB"/>
            <stop offset="1" stop-color="#F0F1F1"/>
        </linearGradient>
        <linearGradient id="paint3_linear_1128_40200" x1="102.687" y1="150.839" x2="102.687" y2="160.3" gradientUnits="userSpaceOnUse">
            <stop stop-color="#EAECEC"/>
            <stop offset="1" stop-color="#F0F1F1"/>
        </linearGradient>
        <linearGradient id="paint4_linear_1128_40200" x1="102.687" y1="172.914" x2="102.687" y2="182.375" gradientUnits="userSpaceOnUse">
            <stop stop-color="#EAECEC"/>
            <stop offset="1" stop-color="#F0F1F1"/>
        </linearGradient>
        <linearGradient id="paint5_linear_1128_40200" x1="156.729" y1="153.993" x2="177.612" y2="132.689" gradientUnits="userSpaceOnUse">
            <stop stop-color="#144C7F"/>
            <stop offset="1" stop-color="#1C6DB6"/>
        </linearGradient>
        <linearGradient id="paint6_linear_1128_40200" x1="121.962" y1="143" x2="167.025" y2="97.0272" gradientUnits="userSpaceOnUse">
            <stop stop-color="#144C7F"/>
            <stop offset="1" stop-color="#1C6DB6"/>
        </linearGradient>
        <linearGradient id="paint7_linear_1128_40200" x1="156.331" y1="110.121" x2="141.716" y2="127.082" gradientUnits="userSpaceOnUse">
            <stop stop-color="#EEEEEE" stop-opacity="0.367499"/>
            <stop offset="1" stop-color="#D8D8D8" stop-opacity="0.01"/>
        </linearGradient>
        <radialGradient id="paint8_radial_1128_40200" cx="0" cy="0" r="1" gradientUnits="userSpaceOnUse" gradientTransform="translate(130.111 223.86) rotate(-90) scale(51.3403 536.198)">
            <stop stop-color="#EBEDF0" stop-opacity="0.24"/>
            <stop offset="0.536775" stop-color="#EBEDF0" stop-opacity="0.845525"/>
            <stop offset="1" stop-color="#E0E4E7" stop-opacity="0.01"/>
        </radialGradient>
        <linearGradient id="paint9_linear_1128_40200" x1="126.305" y1="209.071" x2="128.707" y2="214.208" gradientUnits="userSpaceOnUse">
            <stop stop-color="#E1E7EA"/>
            <stop offset="1" stop-color="#D0D6DC"/>
        </linearGradient>
        <linearGradient id="paint10_linear_1128_40200" x1="189.845" y1="226.062" x2="194.241" y2="235.231" gradientUnits="userSpaceOnUse">
            <stop stop-color="#E1E7EA"/>
            <stop offset="1" stop-color="#D0D6DC"/>
        </linearGradient>
        <linearGradient id="paint11_linear_1128_40200" x1="50.7703" y1="208.59" x2="53.2577" y2="218.499" gradientUnits="userSpaceOnUse">
            <stop stop-color="#FBFBFB"/>
            <stop offset="1" stop-color="#D9DFE3"/>
        </linearGradient>
        <linearGradient id="paint12_linear_1128_40200" x1="192.74" y1="211.138" x2="204.035" y2="229.629" gradientUnits="userSpaceOnUse">
            <stop stop-color="#B7BFC3"/>
            <stop offset="0.487221" stop-color="#D9E2E6"/>
            <stop offset="1" stop-color="#E6EDF3" stop-opacity="0.01"/>
        </linearGradient>
        <linearGradient id="paint13_linear_1128_40200" x1="199.746" y1="204.348" x2="230.585" y2="189.4" gradientUnits="userSpaceOnUse">
            <stop stop-color="#144C7F"/>
            <stop offset="1" stop-color="#1C6DB6"/>
        </linearGradient>
        <linearGradient id="paint14_linear_1128_40200" x1="211.183" y1="132.561" x2="211.183" y2="129.041" gradientUnits="userSpaceOnUse">
            <stop stop-color="#FBD8D6"/>
            <stop offset="1" stop-color="#EAC0BE" stop-opacity="0.7"/>
        </linearGradient>
        <linearGradient id="paint15_linear_1128_40200" x1="182.928" y1="147.021" x2="210.746" y2="176.366" gradientUnits="userSpaceOnUse">
            <stop stop-color="#E5E9F0"/>
            <stop offset="1" stop-color="#D2DAE8"/>
        </linearGradient>
    </defs>
</svg>
