<svg width="690" height="368" viewBox="0 0 690 368" fill="none" xmlns="http://www.w3.org/2000/svg">
    <path d="M7.11079 181.154L7.11079 182.483C6.8267 182.535 6.5767 182.63 6.36079 182.769C6.14489 182.908 5.96165 183.079 5.81108 183.28C5.66051 183.482 5.54687 183.708 5.47017 183.958C5.39347 184.205 5.35511 184.468 5.35511 184.746C5.35511 185.249 5.48153 185.699 5.73437 186.097C5.98722 186.492 6.35795 186.805 6.84659 187.035C7.33523 187.262 7.93182 187.376 8.63636 187.376C9.34659 187.376 9.94602 187.262 10.4347 187.035C10.9233 186.805 11.2926 186.491 11.5426 186.093C11.7926 185.695 11.9176 185.248 11.9176 184.751C11.9176 184.475 11.8807 184.214 11.8068 183.966C11.7301 183.716 11.6179 183.491 11.4702 183.289C11.3224 183.087 11.142 182.917 10.929 182.778C10.7131 182.635 10.4659 182.537 10.1875 182.483L10.1918 181.154C10.6207 181.225 11.0156 181.363 11.3764 181.567C11.7344 181.769 12.044 182.029 12.3054 182.347C12.5639 182.662 12.7642 183.023 12.9062 183.43C13.0483 183.836 13.1193 184.279 13.1193 184.759C13.1193 185.515 12.9403 186.188 12.5824 186.779C12.2216 187.37 11.706 187.836 11.0355 188.177C10.3651 188.515 9.56534 188.684 8.63636 188.684C7.70455 188.684 6.90483 188.513 6.23722 188.172C5.56676 187.831 5.05256 187.366 4.6946 186.775C4.33381 186.184 4.15341 185.512 4.15341 184.759C4.15341 184.296 4.22017 183.864 4.35369 183.464C4.48437 183.06 4.67756 182.698 4.93324 182.377C5.18608 182.056 5.49574 181.79 5.86222 181.58C6.22585 181.37 6.64204 181.228 7.11079 181.154ZM4.27273 178.406L13 178.406L13 179.681L4.27273 179.681L4.27273 178.406ZM13 176.692L6.45454 176.692L6.45454 175.418L13 175.418L13 176.692ZM5.4446 176.049C5.4446 176.27 5.37074 176.461 5.22301 176.62C5.07244 176.776 4.89346 176.854 4.68608 176.854C4.47585 176.854 4.29687 176.776 4.14915 176.62C3.99858 176.461 3.92329 176.27 3.92329 176.049C3.92329 175.827 3.99858 175.638 4.14915 175.482C4.29687 175.323 4.47585 175.243 4.68608 175.243C4.89346 175.243 5.07244 175.323 5.22301 175.482C5.37074 175.638 5.4446 175.827 5.4446 176.049ZM13.1321 170.947C13.1321 171.58 12.9886 172.126 12.7017 172.583C12.4119 173.038 12.0128 173.387 11.5043 173.632C10.9957 173.876 10.4134 173.998 9.7571 173.998C9.09233 173.998 8.50568 173.873 7.99716 173.623C7.48579 173.373 7.08665 173.021 6.79971 172.566C6.51278 172.112 6.36932 171.576 6.36932 170.96C6.36932 170.463 6.46165 170.019 6.64631 169.63C6.82812 169.241 7.08381 168.927 7.41335 168.688C7.7429 168.447 8.12784 168.303 8.56818 168.258L8.56818 169.498C8.26136 169.566 7.99716 169.722 7.77557 169.967C7.55398 170.208 7.44318 170.532 7.44318 170.938C7.44318 171.294 7.53693 171.605 7.72443 171.872C7.90909 172.136 8.17329 172.342 8.51704 172.49C8.85795 172.637 9.26136 172.711 9.72727 172.711C10.2045 172.711 10.6165 172.639 10.9631 172.494C11.3097 172.349 11.5781 172.144 11.7685 171.88C11.9588 171.613 12.054 171.299 12.054 170.938C12.054 170.697 12.0099 170.478 11.9219 170.282C11.831 170.083 11.7017 169.917 11.5341 169.784C11.3665 169.647 11.1648 169.552 10.929 169.498L10.929 168.258C11.3523 168.303 11.7301 168.441 12.0625 168.671C12.3949 168.901 12.6562 169.21 12.8466 169.596C13.0369 169.98 13.1321 170.43 13.1321 170.947ZM10.7798 165.724L9.22443 165.732L9.22443 165.51L6.45454 162.903L6.45454 161.377L9.60795 164.351L9.60795 164.552L10.7798 165.724ZM13 166.895L4.27273 166.895L4.27273 165.621L13 165.621L13 166.895ZM13 162.762L9.8892 165.106L8.99858 164.228L13 161.198L13 162.762ZM8.05256 155.311L8.2571 156.466C8.10937 156.514 7.96875 156.591 7.83523 156.696C7.7017 156.798 7.59233 156.937 7.5071 157.113C7.42187 157.29 7.37926 157.51 7.37926 157.774C7.37926 158.135 7.46023 158.436 7.62216 158.677C7.78125 158.919 7.98721 159.04 8.24006 159.04C8.45881 159.04 8.63494 158.959 8.76846 158.797C8.90199 158.635 9.01136 158.373 9.09659 158.013L9.33523 156.973C9.47443 156.371 9.68892 155.922 9.97869 155.626C10.2685 155.331 10.6449 155.183 11.108 155.183C11.5 155.183 11.8494 155.297 12.1562 155.524C12.4602 155.748 12.6989 156.062 12.8722 156.466C13.0455 156.866 13.1321 157.331 13.1321 157.859C13.1321 158.592 12.9759 159.19 12.6634 159.653C12.348 160.116 11.9006 160.4 11.321 160.506L11.1335 159.274C11.4545 159.197 11.6974 159.04 11.8622 158.801C12.0241 158.562 12.1051 158.251 12.1051 157.868C12.1051 157.45 12.0185 157.116 11.8452 156.866C11.669 156.616 11.4545 156.491 11.2017 156.491C10.9972 156.491 10.8253 156.568 10.6861 156.721C10.5469 156.872 10.4418 157.104 10.3707 157.416L10.1278 158.524C9.98864 159.135 9.76704 159.586 9.46307 159.879C9.15909 160.169 8.77415 160.314 8.30824 160.314C7.92187 160.314 7.58381 160.206 7.29403 159.99C7.00426 159.774 6.77841 159.476 6.61648 159.095C6.4517 158.714 6.36932 158.278 6.36932 157.787C6.36932 157.079 6.52273 156.523 6.82954 156.116C7.13352 155.71 7.54119 155.442 8.05256 155.311Z" fill="#667085"/>
    <circle cx="562" cy="10" r="4" fill="#6099CC"/>
    <path d="M575.233 15V4.81818H576.466V9.35227H581.895V4.81818H583.128V15H581.895V10.446H576.466V15H575.233ZM585.437 15V7.36364H586.61V15H585.437ZM586.034 6.09091C585.805 6.09091 585.608 6.01302 585.442 5.85724C585.28 5.70147 585.199 5.5142 585.199 5.29545C585.199 5.0767 585.28 4.88944 585.442 4.73366C585.608 4.57789 585.805 4.5 586.034 4.5C586.262 4.5 586.458 4.57789 586.62 4.73366C586.786 4.88944 586.869 5.0767 586.869 5.29545C586.869 5.5142 586.786 5.70147 586.62 5.85724C586.458 6.01302 586.262 6.09091 586.034 6.09091ZM589.933 10.4062V15H588.759V7.36364H589.893V8.55682H589.992C590.171 8.16903 590.443 7.85748 590.808 7.62216C591.172 7.38352 591.643 7.2642 592.22 7.2642C592.737 7.2642 593.189 7.37027 593.577 7.58239C593.965 7.79119 594.266 8.10938 594.482 8.53693C594.697 8.96117 594.805 9.49811 594.805 10.1477V15H593.632V10.2273C593.632 9.62737 593.476 9.16004 593.164 8.82528C592.853 8.48722 592.425 8.31818 591.882 8.31818C591.507 8.31818 591.172 8.39938 590.877 8.56179C590.586 8.72419 590.355 8.96117 590.186 9.27273C590.017 9.58428 589.933 9.96212 589.933 10.4062ZM600.27 7.36364V8.35795H596.312V7.36364H600.27ZM597.466 5.53409H598.639V12.8125C598.639 13.1439 598.687 13.3925 598.783 13.5582C598.883 13.7206 599.009 13.83 599.161 13.8864C599.317 13.9394 599.481 13.9659 599.653 13.9659C599.783 13.9659 599.889 13.9593 599.972 13.946C600.054 13.9295 600.121 13.9162 600.17 13.9062L600.409 14.9602C600.33 14.9901 600.219 15.0199 600.076 15.0497C599.933 15.0829 599.753 15.0994 599.534 15.0994C599.203 15.0994 598.878 15.0282 598.56 14.8857C598.245 14.7431 597.983 14.526 597.774 14.2344C597.569 13.9427 597.466 13.5748 597.466 13.1307V5.53409ZM607.307 9.07386L606.253 9.37216C606.187 9.1965 606.089 9.0258 605.96 8.86009C605.834 8.69105 605.662 8.55185 605.443 8.44247C605.224 8.3331 604.944 8.27841 604.603 8.27841C604.135 8.27841 603.746 8.38613 603.434 8.60156C603.126 8.81368 602.972 9.08381 602.972 9.41193C602.972 9.7036 603.078 9.93395 603.29 10.103C603.502 10.272 603.834 10.4129 604.284 10.5256L605.418 10.804C606.101 10.9697 606.609 11.2232 606.944 11.5646C607.279 11.9027 607.446 12.3385 607.446 12.8722C607.446 13.3097 607.32 13.7008 607.069 14.0455C606.82 14.3902 606.472 14.6619 606.025 14.8608C605.577 15.0597 605.057 15.1591 604.463 15.1591C603.685 15.1591 603.04 14.9901 602.529 14.652C602.019 14.3139 601.696 13.8201 601.56 13.1705L602.674 12.892C602.78 13.303 602.98 13.6113 603.275 13.8168C603.574 14.0223 603.963 14.125 604.444 14.125C604.99 14.125 605.425 14.009 605.746 13.777C606.071 13.5417 606.233 13.2599 606.233 12.9318C606.233 12.6667 606.141 12.4446 605.955 12.2656C605.769 12.0833 605.484 11.9474 605.1 11.858L603.827 11.5597C603.128 11.3939 602.614 11.1371 602.286 10.7891C601.961 10.4377 601.799 9.99858 601.799 9.47159C601.799 9.04072 601.92 8.65956 602.162 8.32812C602.407 7.99669 602.74 7.73651 603.161 7.54758C603.585 7.35866 604.066 7.2642 604.603 7.2642C605.358 7.2642 605.952 7.42992 606.382 7.76136C606.817 8.0928 607.125 8.5303 607.307 9.07386Z" fill="#667085"/>
    <circle cx="626" cy="10" r="4" fill="#1C6DB6"/>
    <path d="M639.651 4.81818L642.673 13.3892H642.793L645.815 4.81818H647.108L643.369 15H642.097L638.358 4.81818H639.651ZM648.535 15V7.36364H649.708V15H648.535ZM649.131 6.09091C648.903 6.09091 648.705 6.01302 648.54 5.85724C648.377 5.70147 648.296 5.5142 648.296 5.29545C648.296 5.0767 648.377 4.88944 648.54 4.73366C648.705 4.57789 648.903 4.5 649.131 4.5C649.36 4.5 649.556 4.57789 649.718 4.73366C649.884 4.88944 649.967 5.0767 649.967 5.29545C649.967 5.5142 649.884 5.70147 649.718 5.85724C649.556 6.01302 649.36 6.09091 649.131 6.09091ZM657.266 9.07386L656.212 9.37216C656.146 9.1965 656.048 9.0258 655.919 8.86009C655.793 8.69105 655.621 8.55185 655.402 8.44247C655.183 8.3331 654.903 8.27841 654.562 8.27841C654.094 8.27841 653.705 8.38613 653.393 8.60156C653.085 8.81368 652.931 9.08381 652.931 9.41193C652.931 9.7036 653.037 9.93395 653.249 10.103C653.461 10.272 653.793 10.4129 654.243 10.5256L655.377 10.804C656.06 10.9697 656.568 11.2232 656.903 11.5646C657.238 11.9027 657.405 12.3385 657.405 12.8722C657.405 13.3097 657.279 13.7008 657.028 14.0455C656.779 14.3902 656.431 14.6619 655.983 14.8608C655.536 15.0597 655.016 15.1591 654.422 15.1591C653.644 15.1591 652.999 14.9901 652.488 14.652C651.978 14.3139 651.655 13.8201 651.519 13.1705L652.633 12.892C652.739 13.303 652.939 13.6113 653.234 13.8168C653.532 14.0223 653.922 14.125 654.403 14.125C654.949 14.125 655.384 14.009 655.705 13.777C656.03 13.5417 656.192 13.2599 656.192 12.9318C656.192 12.6667 656.099 12.4446 655.914 12.2656C655.728 12.0833 655.443 11.9474 655.059 11.858L653.786 11.5597C653.087 11.3939 652.573 11.1371 652.245 10.7891C651.92 10.4377 651.758 9.99858 651.758 9.47159C651.758 9.04072 651.879 8.65956 652.121 8.32812C652.366 7.99669 652.699 7.73651 653.12 7.54758C653.544 7.35866 654.025 7.2642 654.562 7.2642C655.317 7.2642 655.911 7.42992 656.341 7.76136C656.776 8.0928 657.084 8.5303 657.266 9.07386ZM659.172 15V7.36364H660.345V15H659.172ZM659.768 6.09091C659.539 6.09091 659.342 6.01302 659.176 5.85724C659.014 5.70147 658.933 5.5142 658.933 5.29545C658.933 5.0767 659.014 4.88944 659.176 4.73366C659.342 4.57789 659.539 4.5 659.768 4.5C659.997 4.5 660.192 4.57789 660.355 4.73366C660.52 4.88944 660.603 5.0767 660.603 5.29545C660.603 5.5142 660.52 5.70147 660.355 5.85724C660.192 6.01302 659.997 6.09091 659.768 6.09091ZM665.815 7.36364V8.35795H661.857V7.36364H665.815ZM663.011 5.53409H664.184V12.8125C664.184 13.1439 664.232 13.3925 664.328 13.5582C664.428 13.7206 664.554 13.83 664.706 13.8864C664.862 13.9394 665.026 13.9659 665.198 13.9659C665.328 13.9659 665.434 13.9593 665.517 13.946C665.599 13.9295 665.666 13.9162 665.715 13.9062L665.954 14.9602C665.874 14.9901 665.763 15.0199 665.621 15.0497C665.478 15.0829 665.298 15.0994 665.079 15.0994C664.748 15.0994 664.423 15.0282 664.105 14.8857C663.79 14.7431 663.528 14.526 663.319 14.2344C663.114 13.9427 663.011 13.5748 663.011 13.1307V5.53409ZM670.6 15.1591C669.911 15.1591 669.306 14.995 668.785 14.6669C668.268 14.3388 667.864 13.8797 667.572 13.2898C667.284 12.6998 667.14 12.0104 667.14 11.2216C667.14 10.4261 667.284 9.73177 667.572 9.13849C667.864 8.54522 668.268 8.08452 668.785 7.75639C669.306 7.42827 669.911 7.2642 670.6 7.2642C671.289 7.2642 671.893 7.42827 672.41 7.75639C672.93 8.08452 673.334 8.54522 673.623 9.13849C673.914 9.73177 674.06 10.4261 674.06 11.2216C674.06 12.0104 673.914 12.6998 673.623 13.2898C673.334 13.8797 672.93 14.3388 672.41 14.6669C671.893 14.995 671.289 15.1591 670.6 15.1591ZM670.6 14.1051C671.124 14.1051 671.555 13.9709 671.893 13.7024C672.231 13.4339 672.481 13.081 672.643 12.6435C672.806 12.206 672.887 11.732 672.887 11.2216C672.887 10.7112 672.806 10.2356 672.643 9.79474C672.481 9.35393 672.231 8.99763 671.893 8.72585C671.555 8.45407 671.124 8.31818 670.6 8.31818C670.076 8.31818 669.645 8.45407 669.307 8.72585C668.969 8.99763 668.719 9.35393 668.557 9.79474C668.394 10.2356 668.313 10.7112 668.313 11.2216C668.313 11.732 668.394 12.206 668.557 12.6435C668.719 13.081 668.969 13.4339 669.307 13.7024C669.645 13.9709 670.076 14.1051 670.6 14.1051ZM675.851 15V7.36364H676.985V8.51705H677.064C677.203 8.1392 677.455 7.83262 677.82 7.5973C678.185 7.36198 678.596 7.24432 679.053 7.24432C679.139 7.24432 679.247 7.24597 679.376 7.24929C679.505 7.2526 679.603 7.25758 679.669 7.2642V8.45739C679.63 8.44744 679.538 8.43253 679.396 8.41264C679.257 8.38944 679.109 8.37784 678.953 8.37784C678.582 8.37784 678.251 8.45573 677.959 8.61151C677.671 8.76397 677.442 8.97609 677.273 9.24787C677.107 9.51634 677.025 9.82292 677.025 10.1676V15H675.851ZM686.469 9.07386L685.415 9.37216C685.349 9.1965 685.251 9.0258 685.122 8.86009C684.996 8.69105 684.824 8.55185 684.605 8.44247C684.386 8.3331 684.106 8.27841 683.765 8.27841C683.297 8.27841 682.908 8.38613 682.596 8.60156C682.288 8.81368 682.134 9.08381 682.134 9.41193C682.134 9.7036 682.24 9.93395 682.452 10.103C682.664 10.272 682.996 10.4129 683.447 10.5256L684.58 10.804C685.263 10.9697 685.772 11.2232 686.106 11.5646C686.441 11.9027 686.608 12.3385 686.608 12.8722C686.608 13.3097 686.483 13.7008 686.231 14.0455C685.982 14.3902 685.634 14.6619 685.187 14.8608C684.739 15.0597 684.219 15.1591 683.626 15.1591C682.847 15.1591 682.202 14.9901 681.692 14.652C681.181 14.3139 680.858 13.8201 680.722 13.1705L681.836 12.892C681.942 13.303 682.142 13.6113 682.437 13.8168C682.736 14.0223 683.125 14.125 683.606 14.125C684.153 14.125 684.587 14.009 684.908 13.777C685.233 13.5417 685.395 13.2599 685.395 12.9318C685.395 12.6667 685.303 12.4446 685.117 12.2656C684.931 12.0833 684.646 11.9474 684.262 11.858L682.989 11.5597C682.29 11.3939 681.776 11.1371 681.448 10.7891C681.123 10.4377 680.961 9.99858 680.961 9.47159C680.961 9.04072 681.082 8.65956 681.324 8.32812C681.569 7.99669 681.902 7.73651 682.323 7.54758C682.747 7.35866 683.228 7.2642 683.765 7.2642C684.52 7.2642 685.114 7.42992 685.545 7.76136C685.979 8.0928 686.287 8.5303 686.469 9.07386Z" fill="#667085"/>
    <path d="M27.3505 26.2727V35H26.2937V27.3807H26.2425L24.1119 28.7955V27.7216L26.2937 26.2727H27.3505ZM30.8619 33.8068L30.7937 34.267C30.7454 34.5909 30.6715 34.9375 30.5721 35.3068C30.4755 35.6761 30.3746 36.0241 30.2695 36.3509C30.1644 36.6776 30.0778 36.9375 30.0096 37.1307H29.2425C29.2795 36.9489 29.3278 36.7088 29.3874 36.4105C29.4471 36.1122 29.5067 35.7784 29.5664 35.4091C29.6289 35.0426 29.68 34.6676 29.7198 34.2841L29.771 33.8068H30.8619ZM35.25 35.1193C34.608 35.1193 34.0611 34.9446 33.6094 34.5952C33.1577 34.2429 32.8125 33.733 32.5739 33.0653C32.3352 32.3949 32.2159 31.5852 32.2159 30.6364C32.2159 29.6932 32.3352 28.8878 32.5739 28.2202C32.8153 27.5497 33.1619 27.0384 33.6136 26.6861C34.0682 26.331 34.6136 26.1534 35.25 26.1534C35.8864 26.1534 36.4304 26.331 36.8821 26.6861C37.3366 27.0384 37.6832 27.5497 37.9219 28.2202C38.1634 28.8878 38.2841 29.6932 38.2841 30.6364C38.2841 31.5852 38.1648 32.3949 37.9261 33.0653C37.6875 33.733 37.3423 34.2429 36.8906 34.5952C36.4389 34.9446 35.892 35.1193 35.25 35.1193ZM35.25 34.1818C35.8864 34.1818 36.3807 33.875 36.733 33.2614C37.0852 32.6477 37.2614 31.7727 37.2614 30.6364C37.2614 29.8807 37.1804 29.2372 37.0185 28.706C36.8594 28.1747 36.6293 27.7699 36.3281 27.4915C36.0298 27.2131 35.6705 27.0739 35.25 27.0739C34.6193 27.0739 34.1264 27.3849 33.7713 28.0071C33.4162 28.6264 33.2386 29.5028 33.2386 30.6364C33.2386 31.392 33.3182 32.0341 33.4773 32.5625C33.6364 33.0909 33.8651 33.4929 34.1634 33.7685C34.4645 34.044 34.8267 34.1818 35.25 34.1818ZM42.75 35.1193C42.108 35.1193 41.5611 34.9446 41.1094 34.5952C40.6577 34.2429 40.3125 33.733 40.0739 33.0653C39.8352 32.3949 39.7159 31.5852 39.7159 30.6364C39.7159 29.6932 39.8352 28.8878 40.0739 28.2202C40.3153 27.5497 40.6619 27.0384 41.1136 26.6861C41.5682 26.331 42.1136 26.1534 42.75 26.1534C43.3864 26.1534 43.9304 26.331 44.3821 26.6861C44.8366 27.0384 45.1832 27.5497 45.4219 28.2202C45.6634 28.8878 45.7841 29.6932 45.7841 30.6364C45.7841 31.5852 45.6648 32.3949 45.4261 33.0653C45.1875 33.733 44.8423 34.2429 44.3906 34.5952C43.9389 34.9446 43.392 35.1193 42.75 35.1193ZM42.75 34.1818C43.3864 34.1818 43.8807 33.875 44.233 33.2614C44.5852 32.6477 44.7614 31.7727 44.7614 30.6364C44.7614 29.8807 44.6804 29.2372 44.5185 28.706C44.3594 28.1747 44.1293 27.7699 43.8281 27.4915C43.5298 27.2131 43.1705 27.0739 42.75 27.0739C42.1193 27.0739 41.6264 27.3849 41.2713 28.0071C40.9162 28.6264 40.7386 29.5028 40.7386 30.6364C40.7386 31.392 40.8182 32.0341 40.9773 32.5625C41.1364 33.0909 41.3651 33.4929 41.6634 33.7685C41.9645 34.044 42.3267 34.1818 42.75 34.1818ZM50.25 35.1193C49.608 35.1193 49.0611 34.9446 48.6094 34.5952C48.1577 34.2429 47.8125 33.733 47.5739 33.0653C47.3352 32.3949 47.2159 31.5852 47.2159 30.6364C47.2159 29.6932 47.3352 28.8878 47.5739 28.2202C47.8153 27.5497 48.1619 27.0384 48.6136 26.6861C49.0682 26.331 49.6136 26.1534 50.25 26.1534C50.8864 26.1534 51.4304 26.331 51.8821 26.6861C52.3366 27.0384 52.6832 27.5497 52.9219 28.2202C53.1634 28.8878 53.2841 29.6932 53.2841 30.6364C53.2841 31.5852 53.1648 32.3949 52.9261 33.0653C52.6875 33.733 52.3423 34.2429 51.8906 34.5952C51.4389 34.9446 50.892 35.1193 50.25 35.1193ZM50.25 34.1818C50.8864 34.1818 51.3807 33.875 51.733 33.2614C52.0852 32.6477 52.2614 31.7727 52.2614 30.6364C52.2614 29.8807 52.1804 29.2372 52.0185 28.706C51.8594 28.1747 51.6293 27.7699 51.3281 27.4915C51.0298 27.2131 50.6705 27.0739 50.25 27.0739C49.6193 27.0739 49.1264 27.3849 48.7713 28.0071C48.4162 28.6264 48.2386 29.5028 48.2386 30.6364C48.2386 31.392 48.3182 32.0341 48.4773 32.5625C48.6364 33.0909 48.8651 33.4929 49.1634 33.7685C49.4645 34.044 49.8267 34.1818 50.25 34.1818Z" fill="#667085"/>
    <line x1="62.5" y1="31" x2="687.5" y2="31" stroke="#F2F4F7" strokeLinecap="round"/>
    <path d="M35.3043 94.4191C34.7191 94.4191 34.2021 94.3154 33.7532 94.108C33.3072 93.8978 32.9592 93.6095 32.7092 93.243C32.4592 92.8737 32.3356 92.4532 32.3384 91.9816C32.3356 91.6123 32.408 91.2714 32.5558 90.9589C32.7035 90.6436 32.9052 90.3808 33.1609 90.1705C33.4194 89.9575 33.7077 89.8225 34.0259 89.7657V89.7146C33.6083 89.6066 33.2759 89.3722 33.0288 89.0115C32.7816 88.6478 32.6594 88.2345 32.6623 87.7714C32.6594 87.3282 32.7717 86.9319 32.9989 86.5825C33.2262 86.233 33.5387 85.9575 33.9364 85.7558C34.337 85.5541 34.793 85.4532 35.3043 85.4532C35.81 85.4532 36.2617 85.5541 36.6594 85.7558C37.0572 85.9575 37.3697 86.233 37.5969 86.5825C37.8271 86.9319 37.9435 87.3282 37.9464 87.7714C37.9435 88.2345 37.8171 88.6478 37.5671 89.0115C37.32 89.3722 36.9918 89.6066 36.5827 89.7146V89.7657C36.8981 89.8225 37.1822 89.9575 37.435 90.1705C37.6879 90.3808 37.8896 90.6436 38.0401 90.9589C38.1907 91.2714 38.2674 91.6123 38.2702 91.9816C38.2674 92.4532 38.1396 92.8737 37.8867 93.243C37.6367 93.6095 37.2887 93.8978 36.8427 94.108C36.3995 94.3154 35.8867 94.4191 35.3043 94.4191ZM35.3043 93.4816C35.6992 93.4816 36.0401 93.4177 36.3271 93.2899C36.614 93.162 36.8356 92.9816 36.9918 92.7487C37.1481 92.5157 37.2276 92.243 37.2305 91.9305C37.2276 91.6009 37.1424 91.3097 36.9748 91.0569C36.8072 90.8041 36.5785 90.6052 36.2887 90.4603C36.0018 90.3154 35.6737 90.243 35.3043 90.243C34.9322 90.243 34.5998 90.3154 34.3072 90.4603C34.0174 90.6052 33.7887 90.8041 33.6211 91.0569C33.4563 91.3097 33.3754 91.6009 33.3782 91.9305C33.3754 92.243 33.4506 92.5157 33.604 92.7487C33.7603 92.9816 33.9833 93.162 34.2731 93.2899C34.5629 93.4177 34.9066 93.4816 35.3043 93.4816ZM35.3043 89.3396C35.6168 89.3396 35.8938 89.2771 36.1353 89.1521C36.3796 89.0271 36.5714 88.8524 36.7106 88.6279C36.8498 88.4035 36.9208 88.1407 36.9237 87.8396C36.9208 87.5441 36.8512 87.287 36.7148 87.0683C36.5785 86.8467 36.3896 86.6762 36.1481 86.5569C35.9066 86.4347 35.6254 86.3737 35.3043 86.3737C34.9776 86.3737 34.6921 86.4347 34.4478 86.5569C34.2035 86.6762 34.0146 86.8467 33.881 87.0683C33.7475 87.287 33.6822 87.5441 33.685 87.8396C33.6822 88.1407 33.7489 88.4035 33.8853 88.6279C34.0245 88.8524 34.2163 89.0271 34.4606 89.1521C34.7049 89.2771 34.9862 89.3396 35.3043 89.3396ZM42.75 94.4191C42.108 94.4191 41.5611 94.2444 41.1094 93.895C40.6577 93.5427 40.3125 93.0328 40.0739 92.3651C39.8352 91.6947 39.7159 90.885 39.7159 89.9362C39.7159 88.993 39.8352 88.1876 40.0739 87.52C40.3153 86.8495 40.6619 86.3382 41.1136 85.9859C41.5682 85.6308 42.1136 85.4532 42.75 85.4532C43.3864 85.4532 43.9304 85.6308 44.3821 85.9859C44.8366 86.3382 45.1832 86.8495 45.4219 87.52C45.6634 88.1876 45.7841 88.993 45.7841 89.9362C45.7841 90.885 45.6648 91.6947 45.4261 92.3651C45.1875 93.0328 44.8423 93.5427 44.3906 93.895C43.9389 94.2444 43.392 94.4191 42.75 94.4191ZM42.75 93.4816C43.3864 93.4816 43.8807 93.1748 44.233 92.5612C44.5852 91.9475 44.7614 91.0725 44.7614 89.9362C44.7614 89.1805 44.6804 88.537 44.5185 88.0058C44.3594 87.4745 44.1293 87.0697 43.8281 86.7913C43.5298 86.5129 43.1705 86.3737 42.75 86.3737C42.1193 86.3737 41.6264 86.6847 41.2713 87.3069C40.9162 87.9262 40.7386 88.8026 40.7386 89.9362C40.7386 90.6918 40.8182 91.3339 40.9773 91.8623C41.1364 92.3907 41.3651 92.7927 41.6634 93.0683C41.9645 93.3438 42.3267 93.4816 42.75 93.4816ZM50.25 94.4191C49.608 94.4191 49.0611 94.2444 48.6094 93.895C48.1577 93.5427 47.8125 93.0328 47.5739 92.3651C47.3352 91.6947 47.2159 90.885 47.2159 89.9362C47.2159 88.993 47.3352 88.1876 47.5739 87.52C47.8153 86.8495 48.1619 86.3382 48.6136 85.9859C49.0682 85.6308 49.6136 85.4532 50.25 85.4532C50.8864 85.4532 51.4304 85.6308 51.8821 85.9859C52.3366 86.3382 52.6832 86.8495 52.9219 87.52C53.1634 88.1876 53.2841 88.993 53.2841 89.9362C53.2841 90.885 53.1648 91.6947 52.9261 92.3651C52.6875 93.0328 52.3423 93.5427 51.8906 93.895C51.4389 94.2444 50.892 94.4191 50.25 94.4191ZM50.25 93.4816C50.8864 93.4816 51.3807 93.1748 51.733 92.5612C52.0852 91.9475 52.2614 91.0725 52.2614 89.9362C52.2614 89.1805 52.1804 88.537 52.0185 88.0058C51.8594 87.4745 51.6293 87.0697 51.3281 86.7913C51.0298 86.5129 50.6705 86.3737 50.25 86.3737C49.6193 86.3737 49.1264 86.6847 48.7713 87.3069C48.4162 87.9262 48.2386 88.8026 48.2386 89.9362C48.2386 90.6918 48.3182 91.3339 48.4773 91.8623C48.6364 92.3907 48.8651 92.7927 49.1634 93.0683C49.4645 93.3438 49.8267 93.4816 50.25 93.4816Z" fill="#667085"/>
    <line x1="62.5" y1="90.2998" x2="687.5" y2="90.2998" stroke="#F2F4F7" strokeLinecap="round"/>
    <path d="M35.3129 151.219C34.9549 151.214 34.5969 151.146 34.239 151.015C33.881 150.884 33.5543 150.664 33.2589 150.354C32.9634 150.042 32.7262 149.62 32.5472 149.089C32.3683 148.555 32.2788 147.884 32.2788 147.077C32.2788 146.305 32.3512 145.62 32.4961 145.023C32.641 144.424 32.8512 143.92 33.1268 143.511C33.4023 143.099 33.7347 142.786 34.1239 142.573C34.516 142.36 34.9577 142.254 35.4492 142.254C35.9379 142.254 36.3725 142.352 36.7532 142.548C37.1367 142.741 37.4492 143.011 37.6907 143.357C37.9322 143.704 38.0884 144.103 38.1594 144.555H37.1197C37.0231 144.163 36.8356 143.837 36.5572 143.579C36.2788 143.32 35.9094 143.191 35.4492 143.191C34.7731 143.191 34.2404 143.485 33.8512 144.073C33.4648 144.661 33.2702 145.486 33.2674 146.549H33.3356C33.4947 146.307 33.6836 146.102 33.9023 145.931C34.1239 145.758 34.3683 145.624 34.6353 145.53C34.9023 145.437 35.185 145.39 35.4833 145.39C35.9833 145.39 36.4407 145.515 36.8555 145.765C37.2702 146.012 37.6026 146.354 37.8526 146.792C38.1026 147.227 38.2276 147.725 38.2276 148.288C38.2276 148.827 38.1069 149.322 37.8654 149.771C37.6239 150.217 37.2844 150.572 36.8469 150.836C36.4123 151.097 35.9009 151.225 35.3129 151.219ZM35.3129 150.282C35.6708 150.282 35.9918 150.192 36.2759 150.013C36.5629 149.834 36.7887 149.594 36.9535 149.293C37.1211 148.992 37.2049 148.657 37.2049 148.288C37.2049 147.927 37.1239 147.599 36.962 147.303C36.8029 147.005 36.5827 146.768 36.3015 146.592C36.0231 146.415 35.7049 146.327 35.3469 146.327C35.0771 146.327 34.8256 146.381 34.5927 146.489C34.3597 146.594 34.1552 146.739 33.979 146.924C33.8058 147.109 33.6694 147.32 33.57 147.559C33.4705 147.795 33.4208 148.043 33.4208 148.305C33.4208 148.651 33.5018 148.975 33.6637 149.276C33.8285 149.577 34.0529 149.82 34.337 150.005C34.6239 150.19 34.9492 150.282 35.3129 150.282ZM42.75 151.219C42.108 151.219 41.5611 151.045 41.1094 150.695C40.6577 150.343 40.3125 149.833 40.0739 149.165C39.8352 148.495 39.7159 147.685 39.7159 146.736C39.7159 145.793 39.8352 144.988 40.0739 144.32C40.3153 143.65 40.6619 143.138 41.1136 142.786C41.5682 142.431 42.1136 142.254 42.75 142.254C43.3864 142.254 43.9304 142.431 44.3821 142.786C44.8366 143.138 45.1832 143.65 45.4219 144.32C45.6634 144.988 45.7841 145.793 45.7841 146.736C45.7841 147.685 45.6648 148.495 45.4261 149.165C45.1875 149.833 44.8423 150.343 44.3906 150.695C43.9389 151.045 43.392 151.219 42.75 151.219ZM42.75 150.282C43.3864 150.282 43.8807 149.975 44.233 149.361C44.5852 148.748 44.7614 147.873 44.7614 146.736C44.7614 145.981 44.6804 145.337 44.5185 144.806C44.3594 144.275 44.1293 143.87 43.8281 143.592C43.5298 143.313 43.1705 143.174 42.75 143.174C42.1193 143.174 41.6264 143.485 41.2713 144.107C40.9162 144.727 40.7386 145.603 40.7386 146.736C40.7386 147.492 40.8182 148.134 40.9773 148.663C41.1364 149.191 41.3651 149.593 41.6634 149.869C41.9645 150.144 42.3267 150.282 42.75 150.282ZM50.25 151.219C49.608 151.219 49.0611 151.045 48.6094 150.695C48.1577 150.343 47.8125 149.833 47.5739 149.165C47.3352 148.495 47.2159 147.685 47.2159 146.736C47.2159 145.793 47.3352 144.988 47.5739 144.32C47.8153 143.65 48.1619 143.138 48.6136 142.786C49.0682 142.431 49.6136 142.254 50.25 142.254C50.8864 142.254 51.4304 142.431 51.8821 142.786C52.3366 143.138 52.6832 143.65 52.9219 144.32C53.1634 144.988 53.2841 145.793 53.2841 146.736C53.2841 147.685 53.1648 148.495 52.9261 149.165C52.6875 149.833 52.3423 150.343 51.8906 150.695C51.4389 151.045 50.892 151.219 50.25 151.219ZM50.25 150.282C50.8864 150.282 51.3807 149.975 51.733 149.361C52.0852 148.748 52.2614 147.873 52.2614 146.736C52.2614 145.981 52.1804 145.337 52.0185 144.806C51.8594 144.275 51.6293 143.87 51.3281 143.592C51.0298 143.313 50.6705 143.174 50.25 143.174C49.6193 143.174 49.1264 143.485 48.7713 144.107C48.4162 144.727 48.2386 145.603 48.2386 146.736C48.2386 147.492 48.3182 148.134 48.4773 148.663C48.6364 149.191 48.8651 149.593 49.1634 149.869C49.4645 150.144 49.8267 150.282 50.25 150.282Z" fill="#667085"/>
    <line x1="62.5" y1="147.1" x2="687.5" y2="147.1" stroke="#F2F4F7" strokeLinecap="round"/>
    <path d="M31.9996 206.11V205.241L35.8349 199.173H36.4656V200.519H36.0394L33.1417 205.104V205.173H38.3065V206.11H31.9996ZM36.1076 207.9V205.846V205.441V199.173H37.1133V207.9H36.1076ZM42.75 208.019C42.108 208.019 41.5611 207.845 41.1094 207.495C40.6577 207.143 40.3125 206.633 40.0739 205.965C39.8352 205.295 39.7159 204.485 39.7159 203.536C39.7159 202.593 39.8352 201.788 40.0739 201.12C40.3153 200.45 40.6619 199.938 41.1136 199.586C41.5682 199.231 42.1136 199.053 42.75 199.053C43.3864 199.053 43.9304 199.231 44.3821 199.586C44.8366 199.938 45.1832 200.45 45.4219 201.12C45.6634 201.788 45.7841 202.593 45.7841 203.536C45.7841 204.485 45.6648 205.295 45.4261 205.965C45.1875 206.633 44.8423 207.143 44.3906 207.495C43.9389 207.845 43.392 208.019 42.75 208.019ZM42.75 207.082C43.3864 207.082 43.8807 206.775 44.233 206.161C44.5852 205.548 44.7614 204.673 44.7614 203.536C44.7614 202.781 44.6804 202.137 44.5185 201.606C44.3594 201.075 44.1293 200.67 43.8281 200.391C43.5298 200.113 43.1705 199.974 42.75 199.974C42.1193 199.974 41.6264 200.285 41.2713 200.907C40.9162 201.526 40.7386 202.403 40.7386 203.536C40.7386 204.292 40.8182 204.934 40.9773 205.462C41.1364 205.991 41.3651 206.393 41.6634 206.668C41.9645 206.944 42.3267 207.082 42.75 207.082ZM50.25 208.019C49.608 208.019 49.0611 207.845 48.6094 207.495C48.1577 207.143 47.8125 206.633 47.5739 205.965C47.3352 205.295 47.2159 204.485 47.2159 203.536C47.2159 202.593 47.3352 201.788 47.5739 201.12C47.8153 200.45 48.1619 199.938 48.6136 199.586C49.0682 199.231 49.6136 199.053 50.25 199.053C50.8864 199.053 51.4304 199.231 51.8821 199.586C52.3366 199.938 52.6832 200.45 52.9219 201.12C53.1634 201.788 53.2841 202.593 53.2841 203.536C53.2841 204.485 53.1648 205.295 52.9261 205.965C52.6875 206.633 52.3423 207.143 51.8906 207.495C51.4389 207.845 50.892 208.019 50.25 208.019ZM50.25 207.082C50.8864 207.082 51.3807 206.775 51.733 206.161C52.0852 205.548 52.2614 204.673 52.2614 203.536C52.2614 202.781 52.1804 202.137 52.0185 201.606C51.8594 201.075 51.6293 200.67 51.3281 200.391C51.0298 200.113 50.6705 199.974 50.25 199.974C49.6193 199.974 49.1264 200.285 48.7713 200.907C48.4162 201.526 48.2386 202.403 48.2386 203.536C48.2386 204.292 48.3182 204.934 48.4773 205.462C48.6364 205.991 48.8651 206.393 49.1634 206.668C49.4645 206.944 49.8267 207.082 50.25 207.082Z" fill="#667085"/>
    <line x1="62.5" y1="203.9" x2="687.5" y2="203.9" stroke="#F2F4F7" strokeLinecap="round"/>
    <path d="M32.6378 264.7V263.933L35.5185 260.78C35.8565 260.41 36.1349 260.089 36.3537 259.817C36.5724 259.541 36.7344 259.283 36.8395 259.041C36.9474 258.797 37.0014 258.541 37.0014 258.274C37.0014 257.967 36.9276 257.702 36.7798 257.477C36.6349 257.253 36.4361 257.079 36.1832 256.957C35.9304 256.835 35.6463 256.774 35.331 256.774C34.9957 256.774 34.7031 256.844 34.4531 256.983C34.206 257.119 34.0142 257.311 33.8778 257.558C33.7443 257.805 33.6776 258.095 33.6776 258.427H32.6719C32.6719 257.916 32.7898 257.467 33.0256 257.081C33.2614 256.695 33.5824 256.393 33.9886 256.177C34.3977 255.962 34.8565 255.854 35.3651 255.854C35.8764 255.854 36.3295 255.962 36.7244 256.177C37.1193 256.393 37.429 256.685 37.6534 257.051C37.8778 257.418 37.9901 257.825 37.9901 258.274C37.9901 258.595 37.9318 258.909 37.8153 259.216C37.7017 259.52 37.5028 259.859 37.2188 260.234C36.9375 260.606 36.5469 261.061 36.0469 261.598L34.0866 263.695V263.763H38.1435V264.7H32.6378ZM42.75 264.82C42.108 264.82 41.5611 264.645 41.1094 264.295C40.6577 263.943 40.3125 263.433 40.0739 262.766C39.8352 262.095 39.7159 261.285 39.7159 260.337C39.7159 259.393 39.8352 258.588 40.0739 257.92C40.3153 257.25 40.6619 256.739 41.1136 256.386C41.5682 256.031 42.1136 255.854 42.75 255.854C43.3864 255.854 43.9304 256.031 44.3821 256.386C44.8366 256.739 45.1832 257.25 45.4219 257.92C45.6634 258.588 45.7841 259.393 45.7841 260.337C45.7841 261.285 45.6648 262.095 45.4261 262.766C45.1875 263.433 44.8423 263.943 44.3906 264.295C43.9389 264.645 43.392 264.82 42.75 264.82ZM42.75 263.882C43.3864 263.882 43.8807 263.575 44.233 262.962C44.5852 262.348 44.7614 261.473 44.7614 260.337C44.7614 259.581 44.6804 258.937 44.5185 258.406C44.3594 257.875 44.1293 257.47 43.8281 257.192C43.5298 256.913 43.1705 256.774 42.75 256.774C42.1193 256.774 41.6264 257.085 41.2713 257.707C40.9162 258.327 40.7386 259.203 40.7386 260.337C40.7386 261.092 40.8182 261.734 40.9773 262.263C41.1364 262.791 41.3651 263.193 41.6634 263.469C41.9645 263.744 42.3267 263.882 42.75 263.882ZM50.25 264.82C49.608 264.82 49.0611 264.645 48.6094 264.295C48.1577 263.943 47.8125 263.433 47.5739 262.766C47.3352 262.095 47.2159 261.285 47.2159 260.337C47.2159 259.393 47.3352 258.588 47.5739 257.92C47.8153 257.25 48.1619 256.739 48.6136 256.386C49.0682 256.031 49.6136 255.854 50.25 255.854C50.8864 255.854 51.4304 256.031 51.8821 256.386C52.3366 256.739 52.6832 257.25 52.9219 257.92C53.1634 258.588 53.2841 259.393 53.2841 260.337C53.2841 261.285 53.1648 262.095 52.9261 262.766C52.6875 263.433 52.3423 263.943 51.8906 264.295C51.4389 264.645 50.892 264.82 50.25 264.82ZM50.25 263.882C50.8864 263.882 51.3807 263.575 51.733 262.962C52.0852 262.348 52.2614 261.473 52.2614 260.337C52.2614 259.581 52.1804 258.937 52.0185 258.406C51.8594 257.875 51.6293 257.47 51.3281 257.192C51.0298 256.913 50.6705 256.774 50.25 256.774C49.6193 256.774 49.1264 257.085 48.7713 257.707C48.4162 258.327 48.2386 259.203 48.2386 260.337C48.2386 261.092 48.3182 261.734 48.4773 262.263C48.6364 262.791 48.8651 263.193 49.1634 263.469C49.4645 263.744 49.8267 263.882 50.25 263.882Z" fill="#667085"/>
    <line x1="62.5" y1="260.7" x2="687.5" y2="260.7" stroke="#F2F4F7" strokeLinecap="round"/>
    <path d="M50.25 321.619C49.608 321.619 49.0611 321.445 48.6094 321.095C48.1577 320.743 47.8125 320.233 47.5739 319.565C47.3352 318.895 47.2159 318.085 47.2159 317.136C47.2159 316.193 47.3352 315.388 47.5739 314.72C47.8153 314.05 48.1619 313.538 48.6136 313.186C49.0682 312.831 49.6136 312.653 50.25 312.653C50.8864 312.653 51.4304 312.831 51.8821 313.186C52.3366 313.538 52.6832 314.05 52.9219 314.72C53.1634 315.388 53.2841 316.193 53.2841 317.136C53.2841 318.085 53.1648 318.895 52.9261 319.565C52.6875 320.233 52.3423 320.743 51.8906 321.095C51.4389 321.445 50.892 321.619 50.25 321.619ZM50.25 320.682C50.8864 320.682 51.3807 320.375 51.733 319.761C52.0852 319.148 52.2614 318.273 52.2614 317.136C52.2614 316.381 52.1804 315.737 52.0185 315.206C51.8594 314.675 51.6293 314.27 51.3281 313.991C51.0298 313.713 50.6705 313.574 50.25 313.574C49.6193 313.574 49.1264 313.885 48.7713 314.507C48.4162 315.126 48.2386 316.003 48.2386 317.136C48.2386 317.892 48.3182 318.534 48.4773 319.062C48.6364 319.591 48.8651 319.993 49.1634 320.268C49.4645 320.544 49.8267 320.682 50.25 320.682Z" fill="#667085"/>
    <line x1="62.5" y1="317.5" x2="687.5" y2="317.5" stroke="#F2F4F7" strokeLinecap="round"/>
    <path d="M75.1009 330.273H76.1577V336.511C76.1577 337.068 76.0554 337.541 75.8509 337.93C75.6463 338.32 75.358 338.615 74.9858 338.817C74.6136 339.018 74.1747 339.119 73.669 339.119C73.1918 339.119 72.767 339.033 72.3949 338.859C72.0227 338.683 71.7301 338.433 71.517 338.109C71.304 337.786 71.1974 337.401 71.1974 336.955H72.2372C72.2372 337.202 72.2983 337.418 72.4205 337.602C72.5455 337.784 72.7159 337.926 72.9318 338.028C73.1477 338.131 73.3935 338.182 73.669 338.182C73.973 338.182 74.2315 338.118 74.4446 337.99C74.6577 337.862 74.8196 337.675 74.9304 337.428C75.044 337.178 75.1009 336.872 75.1009 336.511V330.273ZM80.0653 339.153C79.6506 339.153 79.2741 339.075 78.9361 338.919C78.598 338.76 78.3295 338.531 78.1307 338.233C77.9318 337.932 77.8324 337.568 77.8324 337.142C77.8324 336.767 77.9063 336.463 78.054 336.23C78.2017 335.994 78.3991 335.81 78.6463 335.676C78.8935 335.543 79.1662 335.443 79.4645 335.378C79.7656 335.31 80.0682 335.256 80.3722 335.216C80.7699 335.165 81.0923 335.126 81.3395 335.101C81.5895 335.072 81.7713 335.026 81.8849 334.96C82.0014 334.895 82.0597 334.781 82.0597 334.619V334.585C82.0597 334.165 81.9446 333.838 81.7145 333.605C81.4872 333.372 81.142 333.256 80.679 333.256C80.1989 333.256 79.8224 333.361 79.5497 333.571C79.277 333.781 79.0852 334.006 78.9744 334.244L78.0199 333.903C78.1903 333.506 78.4176 333.196 78.7017 332.974C78.9886 332.75 79.3011 332.594 79.6392 332.506C79.9801 332.415 80.3153 332.369 80.6449 332.369C80.8551 332.369 81.0966 332.395 81.3693 332.446C81.6449 332.494 81.9105 332.595 82.1662 332.749C82.4247 332.902 82.6392 333.134 82.8097 333.443C82.9801 333.753 83.0653 334.168 83.0653 334.688V339H82.0597V338.114H82.0085C81.9403 338.256 81.8267 338.408 81.6676 338.57C81.5085 338.732 81.2969 338.869 81.0327 338.983C80.7685 339.097 80.446 339.153 80.0653 339.153ZM80.2188 338.25C80.6165 338.25 80.9517 338.172 81.2244 338.016C81.5 337.859 81.7074 337.658 81.8466 337.411C81.9886 337.163 82.0597 336.903 82.0597 336.631V335.71C82.017 335.761 81.9233 335.808 81.7784 335.851C81.6364 335.891 81.4716 335.926 81.2841 335.957C81.0994 335.986 80.919 336.011 80.7429 336.034C80.5696 336.054 80.429 336.071 80.321 336.085C80.0597 336.119 79.8153 336.175 79.5881 336.251C79.3636 336.325 79.1818 336.437 79.0426 336.588C78.9063 336.736 78.8381 336.937 78.8381 337.193C78.8381 337.543 78.9673 337.807 79.2259 337.986C79.4872 338.162 79.8182 338.25 80.2188 338.25ZM85.9066 335.062V339H84.9009V332.455H85.8725V333.477H85.9577C86.1112 333.145 86.3441 332.878 86.6566 332.676C86.9691 332.472 87.3725 332.369 87.8668 332.369C88.31 332.369 88.6978 332.46 89.0302 332.642C89.3626 332.821 89.6211 333.094 89.8058 333.46C89.9904 333.824 90.0827 334.284 90.0827 334.841V339H89.0771V334.909C89.0771 334.395 88.9435 333.994 88.6765 333.707C88.4094 333.418 88.043 333.273 87.5771 333.273C87.256 333.273 86.9691 333.342 86.7163 333.482C86.4663 333.621 86.2688 333.824 86.1239 334.091C85.979 334.358 85.9066 334.682 85.9066 335.062Z" fill="#667085"/>
    <path d="M168.488 330.273H169.749L172.715 337.517H172.818L175.783 330.273H177.045V339H176.056V332.369H175.971L173.244 339H172.289L169.562 332.369H169.477V339H168.488V330.273ZM180.954 339.153C180.539 339.153 180.162 339.075 179.824 338.919C179.486 338.76 179.218 338.531 179.019 338.233C178.82 337.932 178.721 337.568 178.721 337.142C178.721 336.767 178.794 336.463 178.942 336.23C179.09 335.994 179.287 335.81 179.534 335.676C179.782 335.543 180.054 335.443 180.353 335.378C180.654 335.31 180.956 335.256 181.26 335.216C181.658 335.165 181.981 335.126 182.228 335.101C182.478 335.072 182.659 335.026 182.773 334.96C182.89 334.895 182.948 334.781 182.948 334.619V334.585C182.948 334.165 182.833 333.838 182.603 333.605C182.375 333.372 182.03 333.256 181.567 333.256C181.087 333.256 180.711 333.361 180.438 333.571C180.165 333.781 179.973 334.006 179.863 334.244L178.908 333.903C179.079 333.506 179.306 333.196 179.59 332.974C179.877 332.75 180.189 332.594 180.527 332.506C180.868 332.415 181.204 332.369 181.533 332.369C181.743 332.369 181.985 332.395 182.258 332.446C182.533 332.494 182.799 332.595 183.054 332.749C183.313 332.902 183.527 333.134 183.698 333.443C183.868 333.753 183.954 334.168 183.954 334.688V339H182.948V338.114H182.897C182.829 338.256 182.715 338.408 182.556 338.57C182.397 338.732 182.185 338.869 181.921 338.983C181.657 339.097 181.334 339.153 180.954 339.153ZM181.107 338.25C181.505 338.25 181.84 338.172 182.113 338.016C182.388 337.859 182.596 337.658 182.735 337.411C182.877 337.163 182.948 336.903 182.948 336.631V335.71C182.905 335.761 182.811 335.808 182.667 335.851C182.525 335.891 182.36 335.926 182.172 335.957C181.988 335.986 181.807 336.011 181.631 336.034C181.458 336.054 181.317 336.071 181.209 336.085C180.948 336.119 180.704 336.175 180.476 336.251C180.252 336.325 180.07 336.437 179.931 336.588C179.794 336.736 179.726 336.937 179.726 337.193C179.726 337.543 179.856 337.807 180.114 337.986C180.375 338.162 180.706 338.25 181.107 338.25ZM185.789 339V332.455H186.761V333.443H186.829C186.948 333.119 187.164 332.857 187.477 332.655C187.789 332.453 188.141 332.352 188.533 332.352C188.607 332.352 188.7 332.354 188.81 332.357C188.921 332.359 189.005 332.364 189.062 332.369V333.392C189.028 333.384 188.95 333.371 188.827 333.354C188.708 333.334 188.582 333.324 188.448 333.324C188.13 333.324 187.846 333.391 187.596 333.524C187.349 333.655 187.153 333.837 187.008 334.07C186.866 334.3 186.795 334.562 186.795 334.858V339H185.789Z" fill="#667085"/>
    <path d="M266.841 330.273H268.102L271.068 337.517H271.17L274.136 330.273H275.397V339H274.409V332.369H274.323L271.596 339H270.642L267.914 332.369H267.829V339H266.841V330.273ZM279.306 339.153C278.891 339.153 278.515 339.075 278.177 338.919C277.839 338.76 277.57 338.531 277.371 338.233C277.173 337.932 277.073 337.568 277.073 337.142C277.073 336.767 277.147 336.463 277.295 336.23C277.442 335.994 277.64 335.81 277.887 335.676C278.134 335.543 278.407 335.443 278.705 335.378C279.006 335.31 279.309 335.256 279.613 335.216C280.011 335.165 280.333 335.126 280.58 335.101C280.83 335.072 281.012 335.026 281.126 334.96C281.242 334.895 281.3 334.781 281.3 334.619V334.585C281.3 334.165 281.185 333.838 280.955 333.605C280.728 333.372 280.383 333.256 279.92 333.256C279.44 333.256 279.063 333.361 278.79 333.571C278.518 333.781 278.326 334.006 278.215 334.244L277.261 333.903C277.431 333.506 277.658 333.196 277.942 332.974C278.229 332.75 278.542 332.594 278.88 332.506C279.221 332.415 279.556 332.369 279.886 332.369C280.096 332.369 280.337 332.395 280.61 332.446C280.886 332.494 281.151 332.595 281.407 332.749C281.665 332.902 281.88 333.134 282.05 333.443C282.221 333.753 282.306 334.168 282.306 334.688V339H281.3V338.114H281.249C281.181 338.256 281.067 338.408 280.908 338.57C280.749 338.732 280.538 338.869 280.273 338.983C280.009 339.097 279.687 339.153 279.306 339.153ZM279.459 338.25C279.857 338.25 280.192 338.172 280.465 338.016C280.741 337.859 280.948 337.658 281.087 337.411C281.229 337.163 281.3 336.903 281.3 336.631V335.71C281.258 335.761 281.164 335.808 281.019 335.851C280.877 335.891 280.712 335.926 280.525 335.957C280.34 335.986 280.16 336.011 279.984 336.034C279.81 336.054 279.67 336.071 279.562 336.085C279.3 336.119 279.056 336.175 278.829 336.251C278.604 336.325 278.423 336.437 278.283 336.588C278.147 336.736 278.079 336.937 278.079 337.193C278.079 337.543 278.208 337.807 278.467 337.986C278.728 338.162 279.059 338.25 279.459 338.25ZM284.555 341.455C284.385 341.455 284.233 341.44 284.099 341.412C283.966 341.386 283.873 341.361 283.822 341.335L284.078 340.449C284.322 340.511 284.538 340.534 284.725 340.517C284.913 340.5 285.079 340.416 285.224 340.266C285.372 340.118 285.507 339.878 285.629 339.545L285.816 339.034L283.396 332.455H284.487L286.294 337.67H286.362L288.169 332.455H289.26L286.481 339.955C286.356 340.293 286.201 340.572 286.017 340.794C285.832 341.018 285.617 341.185 285.373 341.293C285.132 341.401 284.859 341.455 284.555 341.455Z" fill="#667085"/>
    <path d="M371.062 330.273H372.119V336.511C372.119 337.068 372.016 337.541 371.812 337.93C371.607 338.32 371.319 338.615 370.947 338.817C370.575 339.018 370.136 339.119 369.63 339.119C369.153 339.119 368.728 339.033 368.356 338.859C367.984 338.683 367.691 338.433 367.478 338.109C367.265 337.786 367.158 337.401 367.158 336.955H368.198C368.198 337.202 368.259 337.418 368.381 337.602C368.506 337.784 368.677 337.926 368.893 338.028C369.109 338.131 369.354 338.182 369.63 338.182C369.934 338.182 370.192 338.118 370.406 337.99C370.619 337.862 370.781 337.675 370.891 337.428C371.005 337.178 371.062 336.872 371.062 336.511V330.273ZM378.225 336.324V332.455H379.231V339H378.225V337.892H378.157C378.004 338.224 377.765 338.507 377.441 338.74C377.117 338.97 376.708 339.085 376.214 339.085C375.805 339.085 375.441 338.996 375.123 338.817C374.805 338.635 374.555 338.362 374.373 337.999C374.191 337.632 374.1 337.17 374.1 336.614V332.455H375.106V336.545C375.106 337.023 375.239 337.403 375.506 337.688C375.776 337.972 376.12 338.114 376.538 338.114C376.788 338.114 377.042 338.05 377.3 337.922C377.562 337.794 377.781 337.598 377.957 337.334C378.136 337.07 378.225 336.733 378.225 336.324ZM382.078 330.273V339H381.073V330.273H382.078Z" fill="#667085"/>
    <path d="M465.214 332.455C465.163 332.023 464.955 331.688 464.592 331.449C464.228 331.21 463.782 331.091 463.254 331.091C462.867 331.091 462.529 331.153 462.239 331.278C461.952 331.403 461.728 331.575 461.566 331.794C461.407 332.013 461.327 332.261 461.327 332.54C461.327 332.773 461.383 332.973 461.494 333.141C461.607 333.305 461.752 333.443 461.928 333.554C462.104 333.662 462.289 333.751 462.482 333.822C462.675 333.891 462.853 333.946 463.015 333.989L463.901 334.227C464.129 334.287 464.381 334.369 464.66 334.474C464.941 334.58 465.21 334.723 465.465 334.905C465.724 335.084 465.937 335.314 466.104 335.595C466.272 335.876 466.356 336.222 466.356 336.631C466.356 337.102 466.232 337.528 465.985 337.909C465.741 338.29 465.383 338.592 464.911 338.817C464.443 339.041 463.873 339.153 463.202 339.153C462.577 339.153 462.036 339.053 461.579 338.851C461.124 338.649 460.766 338.368 460.505 338.007C460.246 337.646 460.1 337.227 460.066 336.75H461.157C461.185 337.08 461.296 337.352 461.489 337.568C461.685 337.781 461.933 337.94 462.231 338.045C462.532 338.148 462.856 338.199 463.202 338.199C463.606 338.199 463.968 338.134 464.289 338.003C464.61 337.869 464.864 337.685 465.052 337.449C465.239 337.21 465.333 336.932 465.333 336.614C465.333 336.324 465.252 336.088 465.09 335.906C464.928 335.724 464.715 335.577 464.451 335.463C464.187 335.349 463.901 335.25 463.595 335.165L462.521 334.858C461.839 334.662 461.299 334.382 460.901 334.018C460.504 333.655 460.305 333.179 460.305 332.591C460.305 332.102 460.437 331.676 460.701 331.312C460.968 330.946 461.326 330.662 461.775 330.46C462.227 330.256 462.731 330.153 463.288 330.153C463.85 330.153 464.35 330.254 464.788 330.456C465.225 330.655 465.572 330.928 465.827 331.274C466.086 331.621 466.222 332.014 466.237 332.455H465.214ZM470.701 339.136C470.071 339.136 469.527 338.997 469.069 338.719C468.615 338.438 468.264 338.045 468.017 337.543C467.772 337.037 467.65 336.449 467.65 335.778C467.65 335.108 467.772 334.517 468.017 334.006C468.264 333.491 468.608 333.091 469.048 332.804C469.491 332.514 470.008 332.369 470.599 332.369C470.94 332.369 471.277 332.426 471.609 332.54C471.941 332.653 472.244 332.838 472.517 333.094C472.789 333.347 473.007 333.682 473.169 334.099C473.331 334.517 473.412 335.031 473.412 335.642V336.068H468.366V335.199H472.389C472.389 334.83 472.315 334.5 472.167 334.21C472.022 333.92 471.815 333.692 471.545 333.524C471.278 333.357 470.963 333.273 470.599 333.273C470.199 333.273 469.852 333.372 469.559 333.571C469.27 333.767 469.047 334.023 468.89 334.338C468.734 334.653 468.656 334.991 468.656 335.352V335.932C468.656 336.426 468.741 336.845 468.912 337.189C469.085 337.53 469.325 337.79 469.632 337.969C469.939 338.145 470.295 338.233 470.701 338.233C470.966 338.233 471.204 338.196 471.417 338.122C471.633 338.045 471.819 337.932 471.976 337.781C472.132 337.628 472.253 337.437 472.338 337.21L473.309 337.483C473.207 337.812 473.035 338.102 472.794 338.352C472.552 338.599 472.254 338.793 471.899 338.932C471.544 339.068 471.145 339.136 470.701 339.136ZM474.941 341.455V332.455H475.913V333.494H476.032C476.106 333.381 476.208 333.236 476.339 333.06C476.473 332.881 476.663 332.722 476.91 332.582C477.16 332.44 477.498 332.369 477.924 332.369C478.476 332.369 478.961 332.507 479.382 332.783C479.802 333.058 480.13 333.449 480.366 333.955C480.602 334.46 480.72 335.057 480.72 335.744C480.72 336.438 480.602 337.038 480.366 337.547C480.13 338.053 479.804 338.445 479.386 338.723C478.968 338.999 478.487 339.136 477.941 339.136C477.521 339.136 477.184 339.067 476.932 338.928C476.679 338.786 476.484 338.625 476.348 338.446C476.211 338.264 476.106 338.114 476.032 337.994H475.947V341.455H474.941ZM475.93 335.727C475.93 336.222 476.003 336.658 476.147 337.036C476.292 337.411 476.504 337.705 476.782 337.918C477.061 338.128 477.402 338.233 477.805 338.233C478.226 338.233 478.576 338.122 478.858 337.901C479.142 337.676 479.355 337.375 479.497 336.997C479.642 336.616 479.714 336.193 479.714 335.727C479.714 335.267 479.643 334.852 479.501 334.483C479.362 334.111 479.15 333.817 478.866 333.601C478.585 333.382 478.231 333.273 477.805 333.273C477.396 333.273 477.052 333.376 476.774 333.584C476.495 333.788 476.285 334.075 476.143 334.445C476.001 334.811 475.93 335.239 475.93 335.727Z" fill="#667085"/>
    <path d="M566.003 330.273V339H564.98L560.225 332.148H560.14V339H559.083V330.273H560.105L564.878 337.142H564.963V330.273H566.003ZM570.641 339.136C570.05 339.136 569.531 338.996 569.085 338.714C568.642 338.433 568.295 338.04 568.045 337.534C567.798 337.028 567.675 336.437 567.675 335.761C567.675 335.08 567.798 334.484 568.045 333.976C568.295 333.467 568.642 333.072 569.085 332.791C569.531 332.51 570.05 332.369 570.641 332.369C571.231 332.369 571.749 332.51 572.192 332.791C572.638 333.072 572.984 333.467 573.231 333.976C573.481 334.484 573.606 335.08 573.606 335.761C573.606 336.437 573.481 337.028 573.231 337.534C572.984 338.04 572.638 338.433 572.192 338.714C571.749 338.996 571.231 339.136 570.641 339.136ZM570.641 338.233C571.089 338.233 571.459 338.118 571.749 337.888C572.038 337.658 572.253 337.355 572.392 336.98C572.531 336.605 572.601 336.199 572.601 335.761C572.601 335.324 572.531 334.916 572.392 334.538C572.253 334.161 572.038 333.855 571.749 333.622C571.459 333.389 571.089 333.273 570.641 333.273C570.192 333.273 569.822 333.389 569.533 333.622C569.243 333.855 569.028 334.161 568.889 334.538C568.75 334.916 568.68 335.324 568.68 335.761C568.68 336.199 568.75 336.605 568.889 336.98C569.028 337.355 569.243 337.658 569.533 337.888C569.822 338.118 570.192 338.233 570.641 338.233ZM580.26 332.455L577.839 339H576.816L574.396 332.455H575.487L577.294 337.67H577.362L579.169 332.455H580.26Z" fill="#667085"/>
    <path d="M661.438 339H658.744V330.273H661.557C662.403 330.273 663.128 330.447 663.73 330.797C664.332 331.143 664.794 331.642 665.115 332.293C665.436 332.94 665.597 333.716 665.597 334.619C665.597 335.528 665.435 336.311 665.111 336.967C664.787 337.621 664.315 338.124 663.696 338.476C663.077 338.825 662.324 339 661.438 339ZM659.801 338.062H661.369C662.091 338.062 662.689 337.923 663.163 337.645C663.638 337.366 663.991 336.97 664.224 336.456C664.457 335.942 664.574 335.33 664.574 334.619C664.574 333.915 664.459 333.308 664.229 332.8C663.999 332.288 663.655 331.896 663.197 331.624C662.74 331.348 662.17 331.21 661.489 331.21H659.801V338.062ZM669.977 339.136C669.347 339.136 668.803 338.997 668.345 338.719C667.891 338.438 667.54 338.045 667.293 337.543C667.048 337.037 666.926 336.449 666.926 335.778C666.926 335.108 667.048 334.517 667.293 334.006C667.54 333.491 667.884 333.091 668.324 332.804C668.767 332.514 669.284 332.369 669.875 332.369C670.216 332.369 670.553 332.426 670.885 332.54C671.217 332.653 671.52 332.838 671.793 333.094C672.065 333.347 672.283 333.682 672.445 334.099C672.607 334.517 672.688 335.031 672.688 335.642V336.068H667.642V335.199H671.665C671.665 334.83 671.591 334.5 671.443 334.21C671.298 333.92 671.091 333.692 670.821 333.524C670.554 333.357 670.239 333.273 669.875 333.273C669.474 333.273 669.128 333.372 668.835 333.571C668.545 333.767 668.322 334.023 668.166 334.338C668.01 334.653 667.932 334.991 667.932 335.352V335.932C667.932 336.426 668.017 336.845 668.188 337.189C668.361 337.53 668.601 337.79 668.908 337.969C669.214 338.145 669.571 338.233 669.977 338.233C670.241 338.233 670.48 338.196 670.693 338.122C670.909 338.045 671.095 337.932 671.251 337.781C671.408 337.628 671.528 337.437 671.614 337.21L672.585 337.483C672.483 337.812 672.311 338.102 672.07 338.352C671.828 338.599 671.53 338.793 671.175 338.932C670.82 339.068 670.42 339.136 669.977 339.136ZM676.876 339.136C676.263 339.136 675.734 338.991 675.291 338.702C674.848 338.412 674.507 338.013 674.268 337.504C674.03 336.996 673.911 336.415 673.911 335.761C673.911 335.097 674.033 334.51 674.277 334.001C674.524 333.49 674.868 333.091 675.308 332.804C675.751 332.514 676.268 332.369 676.859 332.369C677.32 332.369 677.734 332.455 678.104 332.625C678.473 332.795 678.776 333.034 679.011 333.341C679.247 333.648 679.393 334.006 679.45 334.415H678.445C678.368 334.116 678.197 333.852 677.933 333.622C677.672 333.389 677.32 333.273 676.876 333.273C676.484 333.273 676.141 333.375 675.845 333.58C675.553 333.781 675.324 334.067 675.159 334.436C674.997 334.803 674.916 335.233 674.916 335.727C674.916 336.233 674.996 336.673 675.155 337.048C675.317 337.423 675.544 337.714 675.837 337.922C676.132 338.129 676.479 338.233 676.876 338.233C677.138 338.233 677.375 338.188 677.588 338.097C677.801 338.006 677.982 337.875 678.129 337.705C678.277 337.534 678.382 337.33 678.445 337.091H679.45C679.393 337.477 679.253 337.825 679.028 338.135C678.807 338.442 678.513 338.686 678.146 338.868C677.783 339.047 677.359 339.136 676.876 339.136Z" fill="#667085"/>
    <path d="M337.461 354.273H339.059L341.837 361.057H341.939L344.718 354.273H346.316V363H345.063V356.685H344.982L342.408 362.987H341.368L338.795 356.68H338.714V363H337.461V354.273ZM350.885 363.132C350.271 363.132 349.736 362.991 349.279 362.71C348.821 362.429 348.466 362.036 348.213 361.53C347.96 361.024 347.834 360.433 347.834 359.757C347.834 359.078 347.96 358.484 348.213 357.976C348.466 357.467 348.821 357.072 349.279 356.791C349.736 356.51 350.271 356.369 350.885 356.369C351.499 356.369 352.034 356.51 352.492 356.791C352.949 357.072 353.304 357.467 353.557 357.976C353.81 358.484 353.936 359.078 353.936 359.757C353.936 360.433 353.81 361.024 353.557 361.53C353.304 362.036 352.949 362.429 352.492 362.71C352.034 362.991 351.499 363.132 350.885 363.132ZM350.889 362.062C351.287 362.062 351.617 361.957 351.878 361.747C352.139 361.537 352.333 361.257 352.458 360.908C352.585 360.558 352.649 360.173 352.649 359.753C352.649 359.335 352.585 358.952 352.458 358.602C352.333 358.25 352.139 357.967 351.878 357.754C351.617 357.541 351.287 357.435 350.889 357.435C350.489 357.435 350.156 357.541 349.892 357.754C349.631 357.967 349.436 358.25 349.308 358.602C349.183 358.952 349.121 359.335 349.121 359.753C349.121 360.173 349.183 360.558 349.308 360.908C349.436 361.257 349.631 361.537 349.892 361.747C350.156 361.957 350.489 362.062 350.889 362.062ZM356.633 359.114V363H355.358V356.455H356.581V357.52H356.662C356.813 357.173 357.049 356.895 357.37 356.685C357.694 356.474 358.101 356.369 358.593 356.369C359.039 356.369 359.43 356.463 359.765 356.651C360.1 356.835 360.36 357.111 360.545 357.477C360.729 357.844 360.822 358.297 360.822 358.837V363H359.547V358.99C359.547 358.516 359.424 358.145 359.177 357.878C358.93 357.608 358.59 357.473 358.158 357.473C357.863 357.473 357.6 357.537 357.37 357.665C357.143 357.793 356.962 357.98 356.829 358.227C356.698 358.472 356.633 358.767 356.633 359.114ZM365.586 356.455V357.477H362.01V356.455H365.586ZM362.969 354.886H364.243V361.078C364.243 361.325 364.28 361.511 364.354 361.636C364.428 361.759 364.523 361.842 364.64 361.888C364.759 361.93 364.888 361.952 365.028 361.952C365.13 361.952 365.219 361.945 365.296 361.93C365.373 361.916 365.432 361.905 365.475 361.896L365.705 362.949C365.631 362.977 365.526 363.006 365.39 363.034C365.253 363.065 365.083 363.082 364.878 363.085C364.543 363.091 364.231 363.031 363.941 362.906C363.651 362.781 363.417 362.588 363.238 362.327C363.059 362.065 362.969 361.737 362.969 361.342V354.886ZM368.41 359.114V363H367.136V354.273H368.393V357.52H368.474C368.627 357.168 368.862 356.888 369.177 356.68C369.492 356.473 369.904 356.369 370.413 356.369C370.862 356.369 371.254 356.462 371.589 356.646C371.927 356.831 372.188 357.107 372.373 357.473C372.561 357.837 372.654 358.291 372.654 358.837V363H371.38V358.99C371.38 358.51 371.257 358.138 371.009 357.874C370.762 357.607 370.419 357.473 369.978 357.473C369.677 357.473 369.407 357.537 369.169 357.665C368.933 357.793 368.747 357.98 368.61 358.227C368.477 358.472 368.41 358.767 368.41 359.114Z" fill="#667085"/>
    <g clip-path="url(#clip0_1128_40793)">
        <path d="M72 70C72 66.6863 74.6863 64 78 64H82C85.3137 64 88 66.6863 88 70V318H72V70Z" fill="#6099CC"/>
        <path d="M72 186.416C72 183.103 74.6863 180.417 78 180.417H82C85.3137 180.417 88 183.103 88 186.417V318H72V186.416Z" fill="#337CBD"/>
        <path d="M125.636 38C125.636 34.6863 128.323 32 131.636 32H135.636C138.95 32 141.636 34.6863 141.636 38V318H125.636V38Z" fill="#6099CC"/>
        <path d="M125.636 169.084C125.636 165.77 128.323 163.083 131.636 163.083H135.636C138.95 163.083 141.636 165.77 141.636 169.083V318H125.636V169.084Z" fill="#337CBD"/>
        <path d="M179.273 102C179.273 98.6863 181.959 96 185.273 96H189.273C192.587 96 195.273 98.6863 195.273 102V318H179.273V102Z" fill="#6099CC"/>
        <path d="M179.273 203.75C179.273 200.436 181.959 197.75 185.273 197.75H189.273C192.587 197.75 195.273 200.436 195.273 203.75V318H179.273V203.75Z" fill="#337CBD"/>
        <path d="M232.909 62C232.909 58.6863 235.595 56 238.909 56H242.909C246.223 56 248.909 58.6863 248.909 62V318H232.909V62Z" fill="#6099CC"/>
        <path d="M232.909 182.084C232.909 178.77 235.595 176.083 238.909 176.083H242.909C246.223 176.083 248.909 178.77 248.909 182.083V318H232.909V182.084Z" fill="#337CBD"/>
        <path d="M286.545 102C286.545 98.6863 289.232 96 292.545 96H296.545C299.859 96 302.545 98.6863 302.545 102V318H286.545V102Z" fill="#6099CC"/>
        <path d="M286.545 203.75C286.545 200.436 289.232 197.75 292.545 197.75H296.545C299.859 197.75 302.545 200.436 302.545 203.75V318H286.545V203.75Z" fill="#337CBD"/>
        <path d="M340.182 46C340.182 42.6863 342.868 40 346.182 40H350.182C353.495 40 356.182 42.6863 356.182 46V318H340.182V46Z" fill="#6099CC"/>
        <path d="M340.182 173.416C340.182 170.103 342.868 167.417 346.182 167.417H350.182C353.495 167.417 356.182 170.103 356.182 173.417V318H340.182V173.416Z" fill="#337CBD"/>
        <path d="M393.818 70C393.818 66.6863 396.505 64 399.818 64H403.818C407.132 64 409.818 66.6863 409.818 70V318H393.818V70Z" fill="#6099CC"/>
        <path d="M393.818 186.416C393.818 183.103 396.505 180.417 399.818 180.417H403.818C407.132 180.417 409.818 183.103 409.818 186.417V318H393.818V186.416Z" fill="#337CBD"/>
        <path d="M447.455 62C447.455 58.6863 450.141 56 453.455 56H457.455C460.768 56 463.455 58.6863 463.455 62V318H447.455V62Z" fill="#6099CC"/>
        <path d="M447.455 182.084C447.455 178.77 450.141 176.083 453.455 176.083H457.455C460.768 176.083 463.455 178.77 463.455 182.083V318H447.455V182.084Z" fill="#337CBD"/>
        <path d="M501.091 70C501.091 66.6863 503.777 64 507.091 64H511.091C514.405 64 517.091 66.6863 517.091 70V318H501.091V70Z" fill="#6099CC"/>
        <path d="M501.091 186.416C501.091 183.103 503.777 180.417 507.091 180.417H511.091C514.405 180.417 517.091 183.103 517.091 186.417V318H501.091V186.416Z" fill="#337CBD"/>
        <path d="M554.727 54C554.727 50.6863 557.413 48 560.727 48H564.727C568.041 48 570.727 50.6863 570.727 54V318H554.727V54Z" fill="#6099CC"/>
        <path d="M554.727 177.75C554.727 174.436 557.413 171.75 560.727 171.75H564.727C568.041 171.75 570.727 174.436 570.727 177.75V318H554.727V177.75Z" fill="#337CBD"/>
        <path d="M608.364 38C608.364 34.6863 611.05 32 614.364 32H618.364C621.677 32 624.364 34.6863 624.364 38V318H608.364V38Z" fill="#6099CC"/>
        <path d="M608.364 169.084C608.364 165.77 611.05 163.083 614.364 163.083H618.364C621.677 163.083 624.364 165.77 624.364 169.083V318H608.364V169.084Z" fill="#337CBD"/>
        <path d="M662 78C662 74.6863 664.686 72 668 72H672C675.314 72 678 74.6863 678 78V318H662V78Z" fill="#6099CC"/>
        <path d="M662 190.75C662 187.436 664.686 184.75 668 184.75H672C675.314 184.75 678 187.436 678 190.75V318H662V190.75Z" fill="#337CBD"/>
    </g>
    <defs>
        <clipPath id="clip0_1128_40793">
            <rect width="630" height="302" fill="white" transform="translate(60 16)"/>
        </clipPath>
    </defs>
</svg>
