<svg width="20" height="20" viewBox="0 0 20 20" fill="none" xmlns="http://www.w3.org/2000/svg">
<path d="M10.0004 1.25241C10.0004 1.25241 15.158 1.02179 17.8925 6.18745H9.56158C9.56158 6.18745 7.98937 6.13696 6.64635 8.03748C6.26056 8.83518 5.84587 9.65689 6.31123 11.2763C5.64085 10.1446 2.7522 5.13273 2.7522 5.13273C2.7522 5.13273 4.7897 1.45662 10.0004 1.25241H10.0004Z" fill="#EF3F36"/>
<path d="M17.6247 14.366C17.6247 14.366 15.2448 18.9334 9.39038 18.7076C10.1138 17.4606 13.557 11.5189 13.557 11.5189C13.557 11.5189 14.3889 10.1878 13.4075 8.07832C12.9083 7.34552 12.3995 6.57908 10.76 6.17057C12.0789 6.15863 17.878 6.17057 17.878 6.17057C17.878 6.17057 20.0504 9.76739 17.6247 14.366Z" fill="#FCD900"/>
<path d="M2.41219 14.4021C2.41219 14.4021 -0.367998 10.0653 2.75697 5.12547C3.47795 6.37247 6.92119 12.3142 6.92119 12.3142C6.92119 12.3142 7.66388 13.6982 9.9859 13.9047C10.8709 13.8399 11.7919 13.7846 12.9687 12.5761C12.32 13.7198 9.40954 18.7173 9.40954 18.7173C9.40954 18.7173 5.19471 18.7942 2.41212 14.4021H2.41219Z" fill="#61BC5B"/>
<path d="M9.38794 18.7509L10.5598 13.8783C10.5598 13.8783 11.8474 13.7774 12.9277 12.5977C12.2573 13.7727 9.38794 18.7509 9.38794 18.7509Z" fill="#5AB055"/>
<path d="M6.07495 10.0556C6.07495 7.90773 7.82314 6.1658 9.97876 6.1658C12.1344 6.1658 13.8826 7.90773 13.8826 10.0556C13.8826 12.2036 12.1344 13.9455 9.97876 13.9455C7.82314 13.9431 6.07495 12.2036 6.07495 10.0556Z" fill="white"/>
<path d="M6.72827 10.0557C6.72827 8.26815 8.1823 6.81693 9.9787 6.81693C11.7726 6.81693 13.2291 8.26576 13.2291 10.0557C13.2291 11.8433 11.7751 13.2945 9.9787 13.2945C8.18469 13.2945 6.72827 11.8433 6.72827 10.0557Z" fill="url(#paint0_linear_687_2003)"/>
<path d="M17.8755 6.17303L13.0506 7.58339C13.0506 7.58339 12.3224 6.51897 10.7576 6.17303C12.1151 6.1658 17.8755 6.17303 17.8755 6.17303Z" fill="#EACA05"/>
<path d="M6.21721 11.0985C5.53958 9.92843 2.7522 5.13272 2.7522 5.13272L6.32568 8.65501C6.32568 8.65501 5.95913 9.40706 6.09663 10.4834L6.21714 11.0985H6.21721Z" fill="#DF3A32"/>
<defs>
<linearGradient id="paint0_linear_687_2003" x1="9.97854" y1="6.86266" x2="9.97854" y2="13.0995" gradientUnits="userSpaceOnUse">
<stop stop-color="#86BBE5"/>
<stop offset="1" stop-color="#1072BA"/>
</linearGradient>
</defs>
</svg>
