<?xml version="1.0" standalone="no"?>
<!DOCTYPE svg PUBLIC "-//W3C//DTD SVG 20010904//EN"
 "http://www.w3.org/TR/2001/REC-SVG-20010904/DTD/svg10.dtd">
<svg version="1.0" xmlns="http://www.w3.org/2000/svg"
 width="900.000000pt" height="900.000000pt" viewBox="0 0 900.000000 900.000000"
 preserveAspectRatio="xMidYMid meet">

<g transform="translate(0.000000,900.000000) scale(0.100000,-0.100000)"
fill="#000000" stroke="none">
<path d="M2445 8633 c-192 -19 -380 -76 -590 -178 -420 -205 -857 -579 -1174
-1004 -97 -130 -251 -379 -251 -405 0 -3 36 19 81 50 399 271 879 284 1220 33
150 -111 254 -265 306 -457 24 -86 27 -115 28 -262 0 -178 -11 -258 -53 -375
-84 -239 -240 -464 -650 -939 -474 -550 -678 -867 -808 -1254 -180 -540 -187
-1086 -18 -1604 77 -236 258 -576 437 -818 365 -496 861 -845 1397 -982 213
-54 346 -69 675 -75 165 -3 309 -4 320 -1 11 2 -91 41 -230 87 -259 86 -361
132 -525 239 -393 253 -608 542 -771 1035 -113 340 -142 512 -142 827 0 332
26 479 128 745 194 505 515 839 1281 1333 413 266 560 368 729 507 130 107
303 288 388 407 222 310 331 733 297 1151 -54 679 -395 1293 -900 1622 -267
175 -534 276 -801 303 -123 13 -318 21 -374 15z"/>
<path d="M6481 7053 c-167 -227 -258 -531 -286 -955 l-7 -97 -81 -70 c-253
-217 -713 -471 -1327 -732 -161 -68 -171 -74 -135 -77 153 -10 397 -36 494
-53 475 -82 993 -283 1586 -614 286 -160 443 -228 615 -267 92 -20 130 -23
310 -22 269 1 446 31 583 100 l47 24 -5 163 c-7 208 -13 282 -30 387 -59 343
-218 672 -452 935 -199 223 -466 401 -760 506 -50 18 -101 40 -112 49 -15 11
-29 45 -46 113 -53 209 -159 443 -263 584 -33 44 -65 84 -71 87 -6 4 -32 -23
-60 -61z"/>
<path d="M4195 4763 c-127 -7 -269 -28 -370 -53 -115 -29 -271 -85 -280 -101
-4 -5 34 -9 92 -9 137 0 398 -18 523 -36 301 -43 565 -129 840 -271 449 -232
841 -612 1131 -1094 94 -157 134 -198 219 -226 232 -76 520 -45 855 93 316
131 441 168 627 186 146 15 268 2 395 -42 47 -16 88 -30 90 -30 1 0 3 15 3 34
0 71 -93 231 -180 309 -114 103 -249 148 -594 198 -544 78 -704 137 -1236 454
-499 298 -750 401 -1270 519 -111 25 -353 56 -523 66 -155 9 -211 10 -322 3z"/>
<path d="M3545 4205 c-485 -79 -884 -325 -1124 -695 -40 -60 -141 -260 -141
-277 0 -4 28 20 63 53 233 227 512 375 832 444 154 34 440 39 601 12 144 -25
281 -67 427 -133 191 -85 341 -193 497 -356 213 -223 339 -476 402 -813 32
-166 31 -461 -1 -643 -80 -455 -291 -813 -630 -1068 -155 -116 -294 -183 -583
-279 -137 -45 -248 -84 -248 -86 0 -2 718 -4 1595 -4 1237 0 1595 3 1595 12 0
25 -91 195 -135 253 -140 185 -322 318 -537 393 -118 42 -222 62 -319 62 -66
0 -80 3 -76 14 57 147 125 436 149 626 19 154 16 479 -5 623 -81 545 -345
1000 -785 1354 -311 251 -660 418 -1032 495 -129 26 -419 33 -545 13z"/>
<path d="M3350 3229 c-539 -59 -957 -444 -1055 -974 -25 -131 -16 -345 18
-477 112 -426 495 -775 936 -854 121 -21 323 -19 447 5 421 82 757 359 902
744 110 295 101 587 -28 855 -66 136 -136 236 -236 336 -180 179 -398 298
-631 345 -125 25 -245 32 -353 20z m245 -654 c332 -70 508 -426 359 -725 -62
-122 -209 -238 -344 -269 -63 -15 -206 -13 -265 3 -89 23 -167 68 -236 136
-103 101 -149 212 -149 361 0 327 304 564 635 494z"/>
</g>
</svg>
