<?xml version="1.0" encoding="UTF-8"?>
<!DOCTYPE svg PUBLIC "-//W3C//DTD SVG 1.1//EN" "http://www.w3.org/Graphics/SVG/1.1/DTD/svg11.dtd">
<svg xmlns="http://www.w3.org/2000/svg" version="1.1" width="512px" height="512px" style="shape-rendering:geometricPrecision; text-rendering:geometricPrecision; image-rendering:optimizeQuality; fill-rule:evenodd; clip-rule:evenodd" xmlns:xlink="http://www.w3.org/1999/xlink">
<g><path style="opacity:0.998" fill="#4a5e82" d="M 236.5,-0.5 C 249.167,-0.5 261.833,-0.5 274.5,-0.5C 366.845,9.23395 436.012,54.2339 482,134.5C 498.218,165.726 508.051,198.726 511.5,233.5C 511.5,248.5 511.5,263.5 511.5,278.5C 501.902,358.893 464.235,422.393 398.5,469C 361.577,493.029 321.243,507.196 277.5,511.5C 262.5,511.5 247.5,511.5 232.5,511.5C 132.729,498.551 61.5622,446.551 19,355.5C 8.73243,329.967 2.23243,303.634 -0.5,276.5C -0.5,262.5 -0.5,248.5 -0.5,234.5C 11.5147,135.675 62.1813,64.5086 151.5,21C 178.808,9.25677 207.141,2.0901 236.5,-0.5 Z"/></g>
<g><path style="opacity:1" fill="#fefefe" d="M 157.5,115.5 C 222.834,115.333 288.168,115.5 353.5,116C 358.91,117.743 362.744,121.243 365,126.5C 365.667,212.167 365.667,297.833 365,383.5C 363.167,389.333 359.333,393.167 353.5,395C 287.833,395.667 222.167,395.667 156.5,395C 151.667,392.833 148.167,389.333 146,384.5C 145.333,298.833 145.333,213.167 146,127.5C 148.019,121.65 151.852,117.65 157.5,115.5 Z"/></g>
<g><path style="opacity:1" fill="#b9b9b9" d="M 253.5,129.5 C 259.488,129.664 260.821,132.164 257.5,137C 251.403,137.147 250.07,134.647 253.5,129.5 Z"/></g>
<g><path style="opacity:1" fill="#22a7f0" d="M 161.5,151.5 C 224.167,151.5 286.833,151.5 349.5,151.5C 349.5,220.833 349.5,290.167 349.5,359.5C 286.833,359.5 224.167,359.5 161.5,359.5C 161.5,290.167 161.5,220.833 161.5,151.5 Z"/></g>
<g><path style="opacity:1" fill="#b6b6b6" d="M 252.5,370.5 C 260.32,370.152 263.82,373.819 263,381.5C 258,388.167 253,388.167 248,381.5C 247.333,379.5 247.333,377.5 248,375.5C 249.366,373.638 250.866,371.972 252.5,370.5 Z"/></g>
</svg>
