<?xml version="1.0" standalone="no"?>
<!DOCTYPE svg PUBLIC "-//W3C//DTD SVG 20010904//EN"
 "http://www.w3.org/TR/2001/REC-SVG-20010904/DTD/svg10.dtd">
<svg version="1.0" xmlns="http://www.w3.org/2000/svg"
 width="512.000000pt" height="512.000000pt" viewBox="0 0 512.000000 512.000000"
 preserveAspectRatio="xMidYMid meet">

<g transform="translate(0.000000,512.000000) scale(0.100000,-0.100000)"
fill="#000000" stroke="none">
<path d="M3200 4456 c-347 -106 -534 -289 -625 -611 -27 -95 -53 -280 -42
-292 11 -10 183 15 246 37 158 56 345 245 437 444 38 84 71 203 80 291 7 64
-2 156 -14 154 -4 0 -41 -11 -82 -23z"/>
<path d="M3159 3595 c-41 -8 -129 -31 -195 -51 -337 -104 -362 -106 -599 -43
-274 72 -314 80 -455 85 -245 10 -412 -49 -583 -206 -245 -225 -368 -550 -369
-970 -1 -344 74 -648 246 -1002 208 -427 448 -692 682 -753 108 -28 195 -15
394 60 163 61 235 77 346 76 105 0 177 -15 364 -76 173 -56 242 -69 336 -63
63 4 89 12 159 47 182 93 384 335 549 660 54 107 126 280 126 303 0 7 -31 27
-68 45 -191 90 -364 319 -424 559 -16 68 -22 119 -22 214 0 149 17 224 79 355
53 114 110 189 230 304 l96 91 -20 28 c-67 93 -238 230 -347 278 -149 66 -363
90 -525 59z m339 -231 c56 -15 167 -69 211 -103 l24 -18 -65 -81 c-121 -147
-192 -295 -228 -472 -30 -144 -24 -348 14 -495 58 -224 214 -465 391 -603 l40
-31 -54 -106 c-117 -228 -292 -458 -408 -534 -97 -65 -155 -63 -370 9 -370
123 -519 119 -908 -25 -184 -68 -264 -46 -417 114 -215 223 -417 620 -502 981
-38 163 -49 283 -43 464 11 312 89 529 252 704 136 147 252 198 445 195 120
-1 154 -8 455 -87 243 -64 329 -60 631 33 139 43 193 56 304 75 40 7 169 -5
228 -20z"/>
</g>
</svg>
