<?xml version="1.0" encoding="UTF-8"?>
<!DOCTYPE svg PUBLIC "-//W3C//DTD SVG 1.1//EN" "http://www.w3.org/Graphics/SVG/1.1/DTD/svg11.dtd">
<svg xmlns="http://www.w3.org/2000/svg" version="1.1" width="512px" height="512px" style="shape-rendering:geometricPrecision; text-rendering:geometricPrecision; image-rendering:optimizeQuality; fill-rule:evenodd; clip-rule:evenodd" xmlns:xlink="http://www.w3.org/1999/xlink">
<g><path style="opacity:0.021" fill="#43443f" d="M -0.5,-0.5 C 0.166667,-0.5 0.833333,-0.5 1.5,-0.5C 1.16667,0.5 0.5,1.16667 -0.5,1.5C -0.5,0.833333 -0.5,0.166667 -0.5,-0.5 Z"/></g>
<g><path style="opacity:0.022" fill="#43443f" d="M 16.5,-0.5 C 18.1667,-0.5 19.8333,-0.5 21.5,-0.5C 14.5,7.16667 7.16667,14.5 -0.5,21.5C -0.5,19.8333 -0.5,18.1667 -0.5,16.5C 5.5,11.1667 11.1667,5.5 16.5,-0.5 Z"/></g>
<g><path style="opacity:0.022" fill="#43443f" d="M 36.5,-0.5 C 38.1667,-0.5 39.8333,-0.5 41.5,-0.5C 27.8333,13.8333 13.8333,27.8333 -0.5,41.5C -0.5,39.8333 -0.5,38.1667 -0.5,36.5C 12.1667,24.5 24.5,12.1667 36.5,-0.5 Z"/></g>
<g><path style="opacity:0.022" fill="#43443f" d="M 56.5,-0.5 C 58.1667,-0.5 59.8333,-0.5 61.5,-0.5C 41.1667,20.5 20.5,41.1667 -0.5,61.5C -0.5,59.8333 -0.5,58.1667 -0.5,56.5C 18.8333,37.8333 37.8333,18.8333 56.5,-0.5 Z"/></g>
<g><path style="opacity:0.022" fill="#43443f" d="M 76.5,-0.5 C 78.1667,-0.5 79.8333,-0.5 81.5,-0.5C 54.5,27.1667 27.1667,54.5 -0.5,81.5C -0.5,79.8333 -0.5,78.1667 -0.5,76.5C 25.5,51.1667 51.1667,25.5 76.5,-0.5 Z"/></g>
<g><path style="opacity:0.022" fill="#43443f" d="M 96.5,-0.5 C 98.1667,-0.5 99.8333,-0.5 101.5,-0.5C 67.8333,33.8333 33.8333,67.8333 -0.5,101.5C -0.5,99.8333 -0.5,98.1667 -0.5,96.5C 32.1667,64.5 64.5,32.1667 96.5,-0.5 Z"/></g>
<g><path style="opacity:0.022" fill="#43443f" d="M 116.5,-0.5 C 118.167,-0.5 119.833,-0.5 121.5,-0.5C 81.1667,40.5 40.5,81.1667 -0.5,121.5C -0.5,119.833 -0.5,118.167 -0.5,116.5C 38.8333,77.8333 77.8333,38.8333 116.5,-0.5 Z"/></g>
<g><path style="opacity:0.022" fill="#444440" d="M 136.5,-0.5 C 138.167,-0.5 139.833,-0.5 141.5,-0.5C 137.833,3.5 134.167,7.5 130.5,11.5C 129.833,11.5 129.5,11.8333 129.5,12.5C 122.167,16.5 116.5,22.1667 112.5,29.5C 111.833,29.5 111.5,29.8333 111.5,30.5C 74.1667,67.5 36.8333,104.5 -0.5,141.5C -0.5,139.833 -0.5,138.167 -0.5,136.5C 45.5,91.1667 91.1667,45.5 136.5,-0.5 Z"/></g>
<g><path style="opacity:0.022" fill="#43443f" d="M 156.5,-0.5 C 158.167,-0.5 159.833,-0.5 161.5,-0.5C 158.833,2.5 156.167,5.5 153.5,8.5C 151.833,8.5 150.167,8.5 148.5,8.5C 151.167,5.5 153.833,2.5 156.5,-0.5 Z"/></g>
<g><path style="opacity:0.022" fill="#43443f" d="M 176.5,-0.5 C 178.167,-0.5 179.833,-0.5 181.5,-0.5C 178.833,2.5 176.167,5.5 173.5,8.5C 171.833,8.5 170.167,8.5 168.5,8.5C 171.167,5.5 173.833,2.5 176.5,-0.5 Z"/></g>
<g><path style="opacity:0.022" fill="#43443f" d="M 196.5,-0.5 C 198.167,-0.5 199.833,-0.5 201.5,-0.5C 198.833,2.5 196.167,5.5 193.5,8.5C 191.833,8.5 190.167,8.5 188.5,8.5C 191.167,5.5 193.833,2.5 196.5,-0.5 Z"/></g>
<g><path style="opacity:0.022" fill="#43443f" d="M 216.5,-0.5 C 218.167,-0.5 219.833,-0.5 221.5,-0.5C 218.833,2.5 216.167,5.5 213.5,8.5C 211.833,8.5 210.167,8.5 208.5,8.5C 211.167,5.5 213.833,2.5 216.5,-0.5 Z"/></g>
<g><path style="opacity:0.022" fill="#43443f" d="M 236.5,-0.5 C 238.167,-0.5 239.833,-0.5 241.5,-0.5C 238.833,2.5 236.167,5.5 233.5,8.5C 231.833,8.5 230.167,8.5 228.5,8.5C 231.167,5.5 233.833,2.5 236.5,-0.5 Z"/></g>
<g><path style="opacity:0.022" fill="#43443f" d="M 256.5,-0.5 C 258.167,-0.5 259.833,-0.5 261.5,-0.5C 258.833,2.5 256.167,5.5 253.5,8.5C 251.833,8.5 250.167,8.5 248.5,8.5C 251.167,5.5 253.833,2.5 256.5,-0.5 Z"/></g>
<g><path style="opacity:0.022" fill="#43443f" d="M 276.5,-0.5 C 278.167,-0.5 279.833,-0.5 281.5,-0.5C 278.833,2.5 276.167,5.5 273.5,8.5C 271.833,8.5 270.167,8.5 268.5,8.5C 271.167,5.5 273.833,2.5 276.5,-0.5 Z"/></g>
<g><path style="opacity:0.022" fill="#43443f" d="M 296.5,-0.5 C 298.167,-0.5 299.833,-0.5 301.5,-0.5C 298.833,2.5 296.167,5.5 293.5,8.5C 291.833,8.5 290.167,8.5 288.5,8.5C 291.167,5.5 293.833,2.5 296.5,-0.5 Z"/></g>
<g><path style="opacity:0.022" fill="#43443f" d="M 316.5,-0.5 C 318.167,-0.5 319.833,-0.5 321.5,-0.5C 318.833,2.5 316.167,5.5 313.5,8.5C 311.833,8.5 310.167,8.5 308.5,8.5C 311.167,5.5 313.833,2.5 316.5,-0.5 Z"/></g>
<g><path style="opacity:0.022" fill="#43443f" d="M 336.5,-0.5 C 338.167,-0.5 339.833,-0.5 341.5,-0.5C 338.833,2.5 336.167,5.5 333.5,8.5C 331.833,8.5 330.167,8.5 328.5,8.5C 331.167,5.5 333.833,2.5 336.5,-0.5 Z"/></g>
<g><path style="opacity:0.022" fill="#43443f" d="M 356.5,-0.5 C 358.167,-0.5 359.833,-0.5 361.5,-0.5C 358.833,2.5 356.167,5.5 353.5,8.5C 351.833,8.5 350.167,8.5 348.5,8.5C 351.167,5.5 353.833,2.5 356.5,-0.5 Z"/></g>
<g><path style="opacity:0.022" fill="#43443f" d="M 376.5,-0.5 C 378.167,-0.5 379.833,-0.5 381.5,-0.5C 378.5,2.83333 375.5,6.16667 372.5,9.5C 371.167,9.16667 369.833,8.83333 368.5,8.5C 371.167,5.5 373.833,2.5 376.5,-0.5 Z"/></g>
<g><path style="opacity:0.022" fill="#43433f" d="M 396.5,-0.5 C 398.167,-0.5 399.833,-0.5 401.5,-0.5C 396.833,4.83333 391.833,9.83333 386.5,14.5C 384.847,14.3404 383.514,13.6737 382.5,12.5C 387.774,8.89529 392.441,4.56196 396.5,-0.5 Z"/></g>
<g><path style="opacity:0.022" fill="#43443f" d="M 416.5,-0.5 C 418.167,-0.5 419.833,-0.5 421.5,-0.5C 413.5,8.16667 405.167,16.5 396.5,24.5C 395.5,24.1667 394.833,23.5 394.5,22.5C 401.833,14.8333 409.167,7.16667 416.5,-0.5 Z"/></g>
<g><path style="opacity:0.022" fill="#43443f" d="M 436.5,-0.5 C 438.167,-0.5 439.833,-0.5 441.5,-0.5C 428.5,13.1667 415.167,26.5 401.5,39.5C 401.5,38.1667 401.5,36.8333 401.5,35.5C 413.167,23.5 424.833,11.5 436.5,-0.5 Z"/></g>
<g><path style="opacity:0.022" fill="#43443f" d="M 456.5,-0.5 C 458.167,-0.5 459.833,-0.5 461.5,-0.5C 442.167,19.5 422.5,39.1667 402.5,58.5C 402.5,56.8333 402.5,55.1667 402.5,53.5C 420.833,35.8333 438.833,17.8333 456.5,-0.5 Z"/></g>
<g><path style="opacity:0.022" fill="#43443f" d="M 476.5,-0.5 C 478.167,-0.5 479.833,-0.5 481.5,-0.5C 455.5,26.1667 429.167,52.5 402.5,78.5C 402.5,76.8333 402.5,75.1667 402.5,73.5C 427.5,49.1667 452.167,24.5 476.5,-0.5 Z"/></g>
<g><path style="opacity:0.022" fill="#43443f" d="M 496.5,-0.5 C 498.167,-0.5 499.833,-0.5 501.5,-0.5C 468.833,32.8333 435.833,65.8333 402.5,98.5C 402.5,96.8333 402.5,95.1667 402.5,93.5C 434.167,62.5 465.5,31.1667 496.5,-0.5 Z"/></g>
<g><path style="opacity:0.022" fill="#43443f" d="M 511.5,5.5 C 511.5,7.16667 511.5,8.83333 511.5,10.5C 475.167,46.5 438.833,82.5 402.5,118.5C 402.5,116.833 402.5,115.167 402.5,113.5C 438.833,77.5 475.167,41.5 511.5,5.5 Z"/></g>
<g><path style="opacity:0.988" fill="#626262" d="M 148.5,8.5 C 150.167,8.5 151.833,8.5 153.5,8.5C 158.5,8.5 163.5,8.5 168.5,8.5C 170.167,8.5 171.833,8.5 173.5,8.5C 178.5,8.5 183.5,8.5 188.5,8.5C 190.167,8.5 191.833,8.5 193.5,8.5C 198.5,8.5 203.5,8.5 208.5,8.5C 210.167,8.5 211.833,8.5 213.5,8.5C 218.5,8.5 223.5,8.5 228.5,8.5C 230.167,8.5 231.833,8.5 233.5,8.5C 238.5,8.5 243.5,8.5 248.5,8.5C 250.167,8.5 251.833,8.5 253.5,8.5C 258.5,8.5 263.5,8.5 268.5,8.5C 270.167,8.5 271.833,8.5 273.5,8.5C 278.5,8.5 283.5,8.5 288.5,8.5C 290.167,8.5 291.833,8.5 293.5,8.5C 298.5,8.5 303.5,8.5 308.5,8.5C 310.167,8.5 311.833,8.5 313.5,8.5C 318.5,8.5 323.5,8.5 328.5,8.5C 330.167,8.5 331.833,8.5 333.5,8.5C 338.5,8.5 343.5,8.5 348.5,8.5C 350.167,8.5 351.833,8.5 353.5,8.5C 358.5,8.5 363.5,8.5 368.5,8.5C 369.833,8.83333 371.167,9.16667 372.5,9.5C 375.963,10.0991 379.296,11.0991 382.5,12.5C 383.514,13.6737 384.847,14.3404 386.5,14.5C 389.5,16.8333 392.167,19.5 394.5,22.5C 394.833,23.5 395.5,24.1667 396.5,24.5C 397.982,28.2938 399.649,31.9605 401.5,35.5C 401.5,36.8333 401.5,38.1667 401.5,39.5C 402.441,44.0704 402.774,48.737 402.5,53.5C 402.5,55.1667 402.5,56.8333 402.5,58.5C 402.5,63.5 402.5,68.5 402.5,73.5C 402.5,75.1667 402.5,76.8333 402.5,78.5C 402.5,83.5 402.5,88.5 402.5,93.5C 402.5,95.1667 402.5,96.8333 402.5,98.5C 402.5,103.5 402.5,108.5 402.5,113.5C 402.5,115.167 402.5,116.833 402.5,118.5C 402.5,123.5 402.5,128.5 402.5,133.5C 402.5,135.167 402.5,136.833 402.5,138.5C 402.5,142.833 402.5,147.167 402.5,151.5C 399.606,158.07 394.606,161.404 387.5,161.5C 387.5,136.167 387.5,110.833 387.5,85.5C 299.833,85.5 212.167,85.5 124.5,85.5C 124.5,114.167 124.5,142.833 124.5,171.5C 121.369,174.129 118.369,176.962 115.5,180C 113.527,180.495 111.527,180.662 109.5,180.5C 108.994,176.993 109.66,173.826 111.5,171C 110.186,170.015 109.186,168.848 108.5,167.5C 108.5,162.833 108.5,158.167 108.5,153.5C 108.5,151.833 108.5,150.167 108.5,148.5C 108.5,143.5 108.5,138.5 108.5,133.5C 108.5,131.833 108.5,130.167 108.5,128.5C 108.5,123.5 108.5,118.5 108.5,113.5C 108.5,111.833 108.5,110.167 108.5,108.5C 108.5,103.5 108.5,98.5 108.5,93.5C 108.5,91.8333 108.5,90.1667 108.5,88.5C 108.5,83.5 108.5,78.5 108.5,73.5C 108.5,71.8333 108.5,70.1667 108.5,68.5C 108.5,63.5 108.5,58.5 108.5,53.5C 108.5,51.8333 108.5,50.1667 108.5,48.5C 108.471,42.3131 109.471,36.3131 111.5,30.5C 112.167,30.5 112.5,30.1667 112.5,29.5C 116.5,22.1667 122.167,16.5 129.5,12.5C 130.167,12.5 130.5,12.1667 130.5,11.5C 136.332,9.54284 142.332,8.54284 148.5,8.5 Z"/></g>
<g><path style="opacity:0.022" fill="#43443f" d="M 511.5,25.5 C 511.5,27.1667 511.5,28.8333 511.5,30.5C 475.167,66.5 438.833,102.5 402.5,138.5C 402.5,136.833 402.5,135.167 402.5,133.5C 438.833,97.5 475.167,61.5 511.5,25.5 Z"/></g>
<g><path style="opacity:1" fill="#f9f9f9" d="M 221.5,39.5 C 244.169,39.3334 266.836,39.5 289.5,40C 294.434,42.6649 295.601,46.4982 293,51.5C 291.421,53.0412 289.587,54.2078 287.5,55C 266.167,55.6667 244.833,55.6667 223.5,55C 216.332,50.6551 215.665,45.4885 221.5,39.5 Z"/></g>
<g><path style="opacity:0.022" fill="#43443f" d="M 511.5,45.5 C 511.5,47.1667 511.5,48.8333 511.5,50.5C 475.167,86.5 438.833,122.5 402.5,158.5C 402.5,156.833 402.5,155.167 402.5,153.5C 438.833,117.5 475.167,81.5 511.5,45.5 Z"/></g>
<g><path style="opacity:0.022" fill="#43443f" d="M 108.5,48.5 C 108.5,50.1667 108.5,51.8333 108.5,53.5C 72.1667,89.5 35.8333,125.5 -0.5,161.5C -0.5,159.833 -0.5,158.167 -0.5,156.5C 35.8333,120.5 72.1667,84.5 108.5,48.5 Z"/></g>
<g><path style="opacity:0.022" fill="#43443f" d="M 511.5,65.5 C 511.5,67.1667 511.5,68.8333 511.5,70.5C 475.167,106.5 438.833,142.5 402.5,178.5C 402.5,176.833 402.5,175.167 402.5,173.5C 438.833,137.5 475.167,101.5 511.5,65.5 Z"/></g>
<g><path style="opacity:0.022" fill="#43443f" d="M 108.5,68.5 C 108.5,70.1667 108.5,71.8333 108.5,73.5C 72.1667,109.5 35.8333,145.5 -0.5,181.5C -0.5,179.833 -0.5,178.167 -0.5,176.5C 35.8333,140.5 72.1667,104.5 108.5,68.5 Z"/></g>
<g><path style="opacity:0.022" fill="#43443f" d="M 511.5,85.5 C 511.5,87.1667 511.5,88.8333 511.5,90.5C 475.167,126.5 438.833,162.5 402.5,198.5C 402.5,196.833 402.5,195.167 402.5,193.5C 438.833,157.5 475.167,121.5 511.5,85.5 Z"/></g>
<g><path style="opacity:1" fill="#fdfdfd" d="M 386.5,229.5 C 386.5,294.5 386.5,359.5 386.5,424.5C 299.5,424.5 212.5,424.5 125.5,424.5C 125.5,366.833 125.5,309.167 125.5,251.5C 125.5,196.5 125.5,141.5 125.5,86.5C 212.5,86.5 299.5,86.5 386.5,86.5C 386.5,134.167 386.5,181.833 386.5,229.5 Z"/></g>
<g><path style="opacity:0.022" fill="#43443f" d="M 108.5,88.5 C 108.5,90.1667 108.5,91.8333 108.5,93.5C 72.1667,129.5 35.8333,165.5 -0.5,201.5C -0.5,199.833 -0.5,198.167 -0.5,196.5C 35.8333,160.5 72.1667,124.5 108.5,88.5 Z"/></g>
<g><path style="opacity:1" fill="#afafaf" d="M 387.5,161.5 C 387.5,181.5 387.5,201.5 387.5,221.5C 387.5,224.167 387.5,226.833 387.5,229.5C 387.167,229.5 386.833,229.5 386.5,229.5C 386.5,181.833 386.5,134.167 386.5,86.5C 299.5,86.5 212.5,86.5 125.5,86.5C 125.5,141.5 125.5,196.5 125.5,251.5C 125.167,251.5 124.833,251.5 124.5,251.5C 124.5,244.833 124.5,238.167 124.5,231.5C 124.5,211.5 124.5,191.5 124.5,171.5C 124.5,142.833 124.5,114.167 124.5,85.5C 212.167,85.5 299.833,85.5 387.5,85.5C 387.5,110.833 387.5,136.167 387.5,161.5 Z"/></g>
<g><path style="opacity:0.022" fill="#43443f" d="M 511.5,105.5 C 511.5,107.167 511.5,108.833 511.5,110.5C 475.167,146.5 438.833,182.5 402.5,218.5C 402.5,216.833 402.5,215.167 402.5,213.5C 438.833,177.5 475.167,141.5 511.5,105.5 Z"/></g>
<g><path style="opacity:0.022" fill="#43443f" d="M 108.5,108.5 C 108.5,110.167 108.5,111.833 108.5,113.5C 72.1667,149.5 35.8333,185.5 -0.5,221.5C -0.5,219.833 -0.5,218.167 -0.5,216.5C 35.8333,180.5 72.1667,144.5 108.5,108.5 Z"/></g>
<g><path style="opacity:0.022" fill="#43443f" d="M 511.5,125.5 C 511.5,127.167 511.5,128.833 511.5,130.5C 475.167,166.5 438.833,202.5 402.5,238.5C 402.5,236.833 402.5,235.167 402.5,233.5C 438.833,197.5 475.167,161.5 511.5,125.5 Z"/></g>
<g><path style="opacity:0.022" fill="#43443f" d="M 108.5,128.5 C 108.5,130.167 108.5,131.833 108.5,133.5C 72.1667,169.5 35.8333,205.5 -0.5,241.5C -0.5,239.833 -0.5,238.167 -0.5,236.5C 35.8333,200.5 72.1667,164.5 108.5,128.5 Z"/></g>
<g><path style="opacity:1" fill="#22a7df" d="M 358.5,141.5 C 360.494,177.151 361.16,213.151 360.5,249.5C 319.505,250.303 278.505,250.637 237.5,250.5C 237.5,222.167 237.5,193.833 237.5,165.5C 277.781,157.244 318.114,149.244 358.5,141.5 Z"/></g>
<g><path style="opacity:0.022" fill="#43443f" d="M 511.5,145.5 C 511.5,147.167 511.5,148.833 511.5,150.5C 475.167,186.5 438.833,222.5 402.5,258.5C 402.5,256.833 402.5,255.167 402.5,253.5C 438.833,217.5 475.167,181.5 511.5,145.5 Z"/></g>
<g><path style="opacity:0.022" fill="#43443f" d="M 108.5,148.5 C 108.5,150.167 108.5,151.833 108.5,153.5C 72.1667,189.5 35.8333,225.5 -0.5,261.5C -0.5,259.833 -0.5,258.167 -0.5,256.5C 35.8333,220.5 72.1667,184.5 108.5,148.5 Z"/></g>
<g><path style="opacity:0.97" fill="#5a5a5a" d="M 402.5,151.5 C 402.5,152.167 402.5,152.833 402.5,153.5C 402.5,155.167 402.5,156.833 402.5,158.5C 402.5,163.5 402.5,168.5 402.5,173.5C 402.5,175.167 402.5,176.833 402.5,178.5C 402.5,183.5 402.5,188.5 402.5,193.5C 402.5,195.167 402.5,196.833 402.5,198.5C 402.5,202.5 402.5,206.5 402.5,210.5C 400.092,217.56 395.092,221.227 387.5,221.5C 387.5,201.5 387.5,181.5 387.5,161.5C 394.606,161.404 399.606,158.07 402.5,151.5 Z"/></g>
<g><path style="opacity:0.022" fill="#43443f" d="M 511.5,165.5 C 511.5,167.167 511.5,168.833 511.5,170.5C 475.167,206.5 438.833,242.5 402.5,278.5C 402.5,276.833 402.5,275.167 402.5,273.5C 438.833,237.5 475.167,201.5 511.5,165.5 Z"/></g>
<g><path style="opacity:0.97" fill="#5a5a5a" d="M 108.5,167.5 C 109.186,168.848 110.186,170.015 111.5,171C 109.66,173.826 108.994,176.993 109.5,180.5C 111.527,180.662 113.527,180.495 115.5,180C 118.369,176.962 121.369,174.129 124.5,171.5C 124.5,191.5 124.5,211.5 124.5,231.5C 121.703,233.795 119.036,236.295 116.5,239C 114.19,239.497 111.857,239.663 109.5,239.5C 108.814,235.713 109.814,232.546 112.5,230C 111.099,229.59 109.766,229.09 108.5,228.5C 108.5,223.5 108.5,218.5 108.5,213.5C 108.5,211.833 108.5,210.167 108.5,208.5C 108.5,203.5 108.5,198.5 108.5,193.5C 108.5,191.833 108.5,190.167 108.5,188.5C 108.5,183.5 108.5,178.5 108.5,173.5C 108.5,171.833 108.5,170.167 108.5,168.5C 108.5,168.167 108.5,167.833 108.5,167.5 Z"/></g>
<g><path style="opacity:0.022" fill="#43443f" d="M 108.5,168.5 C 108.5,170.167 108.5,171.833 108.5,173.5C 72.1667,209.5 35.8333,245.5 -0.5,281.5C -0.5,279.833 -0.5,278.167 -0.5,276.5C 35.8333,240.5 72.1667,204.5 108.5,168.5 Z"/></g>
<g><path style="opacity:1" fill="#22a7df" d="M 224.5,168.5 C 226.491,195.48 227.158,222.813 226.5,250.5C 213.323,250.171 200.323,250.505 187.5,251.5C 175.167,251.5 162.833,251.5 150.5,251.5C 150.333,228.831 150.5,206.164 151,183.5C 175.357,177.929 199.857,172.929 224.5,168.5 Z"/></g>
<g><path style="opacity:0.022" fill="#43443f" d="M 511.5,185.5 C 511.5,187.167 511.5,188.833 511.5,190.5C 475.167,226.5 438.833,262.5 402.5,298.5C 402.5,296.833 402.5,295.167 402.5,293.5C 438.833,257.5 475.167,221.5 511.5,185.5 Z"/></g>
<g><path style="opacity:0.022" fill="#43443f" d="M 108.5,188.5 C 108.5,190.167 108.5,191.833 108.5,193.5C 72.1667,229.5 35.8333,265.5 -0.5,301.5C -0.5,299.833 -0.5,298.167 -0.5,296.5C 35.8333,260.5 72.1667,224.5 108.5,188.5 Z"/></g>
<g><path style="opacity:1" fill="#8ed2ee" d="M 358.5,141.5 C 359.209,140.596 360.209,140.263 361.5,140.5C 361.832,177.004 361.498,213.337 360.5,249.5C 361.16,213.151 360.494,177.151 358.5,141.5 Z"/></g>
<g><path style="opacity:0.022" fill="#43443f" d="M 511.5,205.5 C 511.5,207.167 511.5,208.833 511.5,210.5C 475.167,246.5 438.833,282.5 402.5,318.5C 402.5,316.833 402.5,315.167 402.5,313.5C 438.833,277.5 475.167,241.5 511.5,205.5 Z"/></g>
<g><path style="opacity:0.022" fill="#43443f" d="M 108.5,208.5 C 108.5,210.167 108.5,211.833 108.5,213.5C 72.1667,249.5 35.8333,285.5 -0.5,321.5C -0.5,319.833 -0.5,318.167 -0.5,316.5C 35.8333,280.5 72.1667,244.5 108.5,208.5 Z"/></g>
<g><path style="opacity:0.967" fill="#545454" d="M 402.5,210.5 C 402.5,211.5 402.5,212.5 402.5,213.5C 402.5,215.167 402.5,216.833 402.5,218.5C 402.5,223.5 402.5,228.5 402.5,233.5C 402.5,235.167 402.5,236.833 402.5,238.5C 402.5,243.5 402.5,248.5 402.5,253.5C 402.5,255.167 402.5,256.833 402.5,258.5C 402.5,262.167 402.5,265.833 402.5,269.5C 400.706,277.269 395.706,280.936 387.5,280.5C 387.5,263.5 387.5,246.5 387.5,229.5C 387.5,226.833 387.5,224.167 387.5,221.5C 395.092,221.227 400.092,217.56 402.5,210.5 Z"/></g>
<g><path style="opacity:0.022" fill="#43443f" d="M 511.5,225.5 C 511.5,227.167 511.5,228.833 511.5,230.5C 475.167,266.5 438.833,302.5 402.5,338.5C 402.5,336.833 402.5,335.167 402.5,333.5C 438.833,297.5 475.167,261.5 511.5,225.5 Z"/></g>
<g><path style="opacity:0.022" fill="#43443f" d="M 108.5,228.5 C 108.5,230.167 108.5,231.833 108.5,233.5C 72.1667,269.5 35.8333,305.5 -0.5,341.5C -0.5,339.833 -0.5,338.167 -0.5,336.5C 35.8333,300.5 72.1667,264.5 108.5,228.5 Z"/></g>
<g><path style="opacity:0.968" fill="#545454" d="M 108.5,228.5 C 109.766,229.09 111.099,229.59 112.5,230C 109.814,232.546 108.814,235.713 109.5,239.5C 111.857,239.663 114.19,239.497 116.5,239C 119.036,236.295 121.703,233.795 124.5,231.5C 124.5,238.167 124.5,244.833 124.5,251.5C 124.5,264.833 124.5,278.167 124.5,291.5C 122.037,293.461 119.703,295.628 117.5,298C 114.854,298.497 112.187,298.664 109.5,298.5C 108.705,294.406 110.038,291.239 113.5,289C 111.803,288.616 110.137,288.782 108.5,289.5C 108.5,289.167 108.5,288.833 108.5,288.5C 108.5,283.5 108.5,278.5 108.5,273.5C 108.5,271.833 108.5,270.167 108.5,268.5C 108.5,263.5 108.5,258.5 108.5,253.5C 108.5,251.833 108.5,250.167 108.5,248.5C 108.5,243.5 108.5,238.5 108.5,233.5C 108.5,231.833 108.5,230.167 108.5,228.5 Z"/></g>
<g><path style="opacity:1" fill="#88cfed" d="M 224.5,168.5 C 225.209,167.596 226.209,167.263 227.5,167.5C 227.5,195.5 227.5,223.5 227.5,251.5C 214.167,251.5 200.833,251.5 187.5,251.5C 200.323,250.505 213.323,250.171 226.5,250.5C 227.158,222.813 226.491,195.48 224.5,168.5 Z"/></g>
<g><path style="opacity:0.022" fill="#43443f" d="M 511.5,245.5 C 511.5,247.167 511.5,248.833 511.5,250.5C 475.167,286.5 438.833,322.5 402.5,358.5C 402.5,356.833 402.5,355.167 402.5,353.5C 438.833,317.5 475.167,281.5 511.5,245.5 Z"/></g>
<g><path style="opacity:0.022" fill="#43443f" d="M 108.5,248.5 C 108.5,250.167 108.5,251.833 108.5,253.5C 72.1667,289.5 35.8333,325.5 -0.5,361.5C -0.5,359.833 -0.5,358.167 -0.5,356.5C 35.8333,320.5 72.1667,284.5 108.5,248.5 Z"/></g>
<g><path style="opacity:0.022" fill="#43443f" d="M 511.5,265.5 C 511.5,267.167 511.5,268.833 511.5,270.5C 475.167,306.5 438.833,342.5 402.5,378.5C 402.5,376.833 402.5,375.167 402.5,373.5C 438.833,337.5 475.167,301.5 511.5,265.5 Z"/></g>
<g><path style="opacity:0.022" fill="#43443f" d="M 108.5,268.5 C 108.5,270.167 108.5,271.833 108.5,273.5C 72.1667,309.5 35.8333,345.5 -0.5,381.5C -0.5,379.833 -0.5,378.167 -0.5,376.5C 35.8333,340.5 72.1667,304.5 108.5,268.5 Z"/></g>
<g><path style="opacity:0.966" fill="#4e4e4e" d="M 402.5,269.5 C 402.5,270.833 402.5,272.167 402.5,273.5C 402.5,275.167 402.5,276.833 402.5,278.5C 402.5,283.5 402.5,288.5 402.5,293.5C 402.5,295.167 402.5,296.833 402.5,298.5C 402.5,303.5 402.5,308.5 402.5,313.5C 402.5,315.167 402.5,316.833 402.5,318.5C 402.5,323.5 402.5,328.5 402.5,333.5C 401.549,334.919 401.216,336.585 401.5,338.5C 399.345,338.372 397.345,338.872 395.5,340C 392.964,342.705 390.297,345.205 387.5,347.5C 387.5,325.167 387.5,302.833 387.5,280.5C 395.706,280.936 400.706,277.269 402.5,269.5 Z"/></g>
<g><path style="opacity:0.813" fill="#414141" d="M 511.5,285.5 C 511.5,287.167 511.5,288.833 511.5,290.5C 475.201,326.299 439.035,362.299 403,398.5C 402.333,403.5 402.333,408.5 403,413.5C 439.035,377.299 475.201,341.299 511.5,305.5C 511.5,307.167 511.5,308.833 511.5,310.5C 475.201,346.299 439.035,382.299 403,418.5C 402.333,423.5 402.333,428.5 403,433.5C 439.035,397.299 475.201,361.299 511.5,325.5C 511.5,327.167 511.5,328.833 511.5,330.5C 475.201,366.299 439.035,402.299 403,438.5C 402.333,443.5 402.333,448.5 403,453.5C 439.035,417.299 475.201,381.299 511.5,345.5C 511.5,347.167 511.5,348.833 511.5,350.5C 475.201,386.299 439.035,422.299 403,458.5C 402.502,461.482 402.335,464.482 402.5,467.5C 360.043,469.575 317.709,472.575 275.5,476.5C 282.853,459.7 278.186,447.866 261.5,441C 242.842,439.327 233.342,447.827 233,466.5C 233.826,470.818 235.326,474.818 237.5,478.5C 197.107,480.637 156.774,483.304 116.5,486.5C 107.221,494.111 98.5538,502.445 90.5,511.5C 88.8333,511.5 87.1667,511.5 85.5,511.5C 94.6311,501.868 103.964,492.368 113.5,483C 111.809,479.599 110.309,476.099 109,472.5C 95.9647,485.368 83.1314,498.368 70.5,511.5C 68.8333,511.5 67.1667,511.5 65.5,511.5C 79.4648,497.035 93.6315,482.701 108,468.5C 108.667,463.5 108.667,458.5 108,453.5C 88.6316,472.701 69.465,492.035 50.5,511.5C 48.8333,511.5 47.1667,511.5 45.5,511.5C 66.1317,490.368 86.965,469.368 108,448.5C 108.667,443.5 108.667,438.5 108,433.5C 81.9651,459.368 56.1318,485.368 30.5,511.5C 28.8333,511.5 27.1667,511.5 25.5,511.5C 52.7985,483.701 80.2985,456.035 108,428.5C 108.464,427.906 108.631,427.239 108.5,426.5C 111.964,423.538 115.297,420.371 118.5,417C 120.473,416.505 122.473,416.338 124.5,416.5C 124.5,419.5 124.5,422.5 124.5,425.5C 212.167,425.5 299.833,425.5 387.5,425.5C 387.5,419.5 387.5,413.5 387.5,407.5C 390.631,404.871 393.631,402.038 396.5,399C 398.134,398.506 399.801,398.34 401.5,398.5C 401.216,396.585 401.549,394.919 402.5,393.5C 438.833,357.5 475.167,321.5 511.5,285.5 Z"/></g>
<g><path style="opacity:0.022" fill="#43443f" d="M 108.5,288.5 C 108.5,288.833 108.5,289.167 108.5,289.5C 108.5,290.833 108.5,292.167 108.5,293.5C 72.1667,329.5 35.8333,365.5 -0.5,401.5C -0.5,399.833 -0.5,398.167 -0.5,396.5C 35.8333,360.5 72.1667,324.5 108.5,288.5 Z"/></g>
<g><path style="opacity:0.965" fill="#4e4e4e" d="M 124.5,291.5 C 124.5,313.5 124.5,335.5 124.5,357.5C 122.143,357.337 119.81,357.503 117.5,358C 114.631,361.038 111.631,363.871 108.5,366.5C 108.5,362.167 108.5,357.833 108.5,353.5C 108.5,351.833 108.5,350.167 108.5,348.5C 108.5,343.5 108.5,338.5 108.5,333.5C 108.5,331.833 108.5,330.167 108.5,328.5C 108.5,323.5 108.5,318.5 108.5,313.5C 108.5,311.833 108.5,310.167 108.5,308.5C 108.5,303.5 108.5,298.5 108.5,293.5C 108.5,292.167 108.5,290.833 108.5,289.5C 110.137,288.782 111.803,288.616 113.5,289C 110.038,291.239 108.705,294.406 109.5,298.5C 112.187,298.664 114.854,298.497 117.5,298C 119.703,295.628 122.037,293.461 124.5,291.5 Z"/></g>
<g><path style="opacity:0.022" fill="#43443f" d="M 108.5,308.5 C 108.5,310.167 108.5,311.833 108.5,313.5C 72.1667,349.5 35.8333,385.5 -0.5,421.5C -0.5,419.833 -0.5,418.167 -0.5,416.5C 35.8333,380.5 72.1667,344.5 108.5,308.5 Z"/></g>
<g><path style="opacity:0.022" fill="#43443f" d="M 108.5,328.5 C 108.5,330.167 108.5,331.833 108.5,333.5C 72.1667,369.5 35.8333,405.5 -0.5,441.5C -0.5,439.833 -0.5,438.167 -0.5,436.5C 35.8333,400.5 72.1667,364.5 108.5,328.5 Z"/></g>
<g><path style="opacity:0.97" fill="#474747" d="M 402.5,333.5 C 402.5,335.167 402.5,336.833 402.5,338.5C 402.5,343.5 402.5,348.5 402.5,353.5C 402.5,355.167 402.5,356.833 402.5,358.5C 402.5,363.5 402.5,368.5 402.5,373.5C 402.5,375.167 402.5,376.833 402.5,378.5C 402.5,383.5 402.5,388.5 402.5,393.5C 401.549,394.919 401.216,396.585 401.5,398.5C 399.801,398.34 398.134,398.506 396.5,399C 393.631,402.038 390.631,404.871 387.5,407.5C 387.5,387.5 387.5,367.5 387.5,347.5C 390.297,345.205 392.964,342.705 395.5,340C 397.345,338.872 399.345,338.372 401.5,338.5C 401.216,336.585 401.549,334.919 402.5,333.5 Z"/></g>
<g><path style="opacity:0.022" fill="#43443f" d="M 108.5,348.5 C 108.5,350.167 108.5,351.833 108.5,353.5C 72.1667,389.5 35.8333,425.5 -0.5,461.5C -0.5,459.833 -0.5,458.167 -0.5,456.5C 35.8333,420.5 72.1667,384.5 108.5,348.5 Z"/></g>
<g><path style="opacity:0.97" fill="#474747" d="M 124.5,357.5 C 124.5,377.167 124.5,396.833 124.5,416.5C 122.473,416.338 120.473,416.505 118.5,417C 115.297,420.371 111.964,423.538 108.5,426.5C 108.5,422.167 108.5,417.833 108.5,413.5C 109.833,411.5 109.833,409.5 108.5,407.5C 108.5,402.833 108.5,398.167 108.5,393.5C 108.5,391.833 108.5,390.167 108.5,388.5C 108.5,383.5 108.5,378.5 108.5,373.5C 108.5,371.833 108.5,370.167 108.5,368.5C 108.5,367.833 108.5,367.167 108.5,366.5C 111.631,363.871 114.631,361.038 117.5,358C 119.81,357.503 122.143,357.337 124.5,357.5 Z"/></g>
<g><path style="opacity:0.022" fill="#444440" d="M 511.5,365.5 C 511.5,367.167 511.5,368.833 511.5,370.5C 473.833,407.833 436.167,445.167 398.5,482.5C 398.903,479.514 399.903,476.848 401.5,474.5C 438.167,438.167 474.833,401.833 511.5,365.5 Z"/></g>
<g><path style="opacity:0.022" fill="#43443f" d="M 108.5,368.5 C 108.5,370.167 108.5,371.833 108.5,373.5C 72.1667,409.5 35.8333,445.5 -0.5,481.5C -0.5,479.833 -0.5,478.167 -0.5,476.5C 35.8333,440.5 72.1667,404.5 108.5,368.5 Z"/></g>
<g><path style="opacity:0.022" fill="#43443f" d="M 511.5,385.5 C 511.5,387.167 511.5,388.833 511.5,390.5C 470.833,430.5 430.5,470.833 390.5,511.5C 388.833,511.5 387.167,511.5 385.5,511.5C 427.167,469.167 469.167,427.167 511.5,385.5 Z"/></g>
<g><path style="opacity:0.022" fill="#43443f" d="M 108.5,388.5 C 108.5,390.167 108.5,391.833 108.5,393.5C 72.1667,429.5 35.8333,465.5 -0.5,501.5C -0.5,499.833 -0.5,498.167 -0.5,496.5C 35.8333,460.5 72.1667,424.5 108.5,388.5 Z"/></g>
<g><path style="opacity:0.022" fill="#43443f" d="M 511.5,405.5 C 511.5,407.167 511.5,408.833 511.5,410.5C 477.5,443.833 443.833,477.5 410.5,511.5C 408.833,511.5 407.167,511.5 405.5,511.5C 440.5,475.833 475.833,440.5 511.5,405.5 Z"/></g>
<g><path style="opacity:0.028" fill="#444340" d="M 108.5,407.5 C 109.833,409.5 109.833,411.5 108.5,413.5C 75.5,445.833 42.8333,478.5 10.5,511.5C 8.83333,511.5 7.16667,511.5 5.5,511.5C 39.8333,476.833 74.1667,442.167 108.5,407.5 Z"/></g>
<g><path style="opacity:1" fill="#a2a2a2" d="M 386.5,229.5 C 386.833,229.5 387.167,229.5 387.5,229.5C 387.5,246.5 387.5,263.5 387.5,280.5C 387.5,302.833 387.5,325.167 387.5,347.5C 387.5,367.5 387.5,387.5 387.5,407.5C 387.5,413.5 387.5,419.5 387.5,425.5C 299.833,425.5 212.167,425.5 124.5,425.5C 124.5,422.5 124.5,419.5 124.5,416.5C 124.5,396.833 124.5,377.167 124.5,357.5C 124.5,335.5 124.5,313.5 124.5,291.5C 124.5,278.167 124.5,264.833 124.5,251.5C 124.833,251.5 125.167,251.5 125.5,251.5C 125.5,309.167 125.5,366.833 125.5,424.5C 212.5,424.5 299.5,424.5 386.5,424.5C 386.5,359.5 386.5,294.5 386.5,229.5 Z"/></g>
<g><path style="opacity:1" fill="#8ed2ee" d="M 360.5,262.5 C 361.498,298.329 361.832,334.329 361.5,370.5C 360.209,370.737 359.209,370.404 358.5,369.5C 360.494,334.182 361.16,298.516 360.5,262.5 Z"/></g>
<g><path style="opacity:1" fill="#22a7df" d="M 360.5,262.5 C 361.16,298.516 360.494,334.182 358.5,369.5C 318.141,361.962 277.808,354.295 237.5,346.5C 237.5,318.167 237.5,289.833 237.5,261.5C 278.67,261.168 319.67,261.501 360.5,262.5 Z"/></g>
<g><path style="opacity:1" fill="#26a8df" d="M 150.5,260.5 C 176.074,260.172 201.574,260.505 227,261.5C 227.5,288.831 227.667,316.165 227.5,343.5C 201.782,339.158 176.115,334.491 150.5,329.5C 150.5,306.5 150.5,283.5 150.5,260.5 Z"/></g>
<g><path style="opacity:0.022" fill="#43443f" d="M 511.5,425.5 C 511.5,427.167 511.5,428.833 511.5,430.5C 484.167,457.167 457.167,484.167 430.5,511.5C 428.833,511.5 427.167,511.5 425.5,511.5C 453.833,482.5 482.5,453.833 511.5,425.5 Z"/></g>
<g><path style="opacity:1" fill="#fbfbfb" d="M 275.5,476.5 C 263.541,488.995 250.875,489.661 237.5,478.5C 235.326,474.818 233.826,470.818 233,466.5C 233.342,447.827 242.842,439.327 261.5,441C 278.186,447.866 282.853,459.7 275.5,476.5 Z"/></g>
<g><path style="opacity:0.022" fill="#43443f" d="M 511.5,445.5 C 511.5,447.167 511.5,448.833 511.5,450.5C 490.833,470.5 470.5,490.833 450.5,511.5C 448.833,511.5 447.167,511.5 445.5,511.5C 467.167,489.167 489.167,467.167 511.5,445.5 Z"/></g>
<g><path style="opacity:0.022" fill="#43443f" d="M 511.5,465.5 C 511.5,467.167 511.5,468.833 511.5,470.5C 497.5,483.833 483.833,497.5 470.5,511.5C 468.833,511.5 467.167,511.5 465.5,511.5C 480.5,495.833 495.833,480.5 511.5,465.5 Z"/></g>
<g><path style="opacity:0.979" fill="#3d3d3d" d="M 402.5,467.5 C 402.007,469.806 401.674,472.139 401.5,474.5C 399.903,476.848 398.903,479.514 398.5,482.5C 389.253,492.15 379.92,501.817 370.5,511.5C 368.833,511.5 367.167,511.5 365.5,511.5C 368.296,508.203 371.296,505.036 374.5,502C 364.2,499.869 356.2,503.035 350.5,511.5C 348.833,511.5 347.167,511.5 345.5,511.5C 347.962,508.536 350.629,505.703 353.5,503C 343.453,499.97 335.786,502.803 330.5,511.5C 328.833,511.5 327.167,511.5 325.5,511.5C 327.962,508.536 330.629,505.703 333.5,503C 323.453,499.97 315.786,502.803 310.5,511.5C 308.833,511.5 307.167,511.5 305.5,511.5C 307.962,508.536 310.629,505.703 313.5,503C 303.453,499.97 295.786,502.803 290.5,511.5C 288.833,511.5 287.167,511.5 285.5,511.5C 287.962,508.536 290.629,505.703 293.5,503C 283.453,499.97 275.786,502.803 270.5,511.5C 268.833,511.5 267.167,511.5 265.5,511.5C 267.962,508.536 270.629,505.703 273.5,503C 263.453,499.97 255.786,502.803 250.5,511.5C 248.833,511.5 247.167,511.5 245.5,511.5C 247.962,508.536 250.629,505.703 253.5,503C 243.453,499.97 235.786,502.803 230.5,511.5C 228.833,511.5 227.167,511.5 225.5,511.5C 227.962,508.536 230.629,505.703 233.5,503C 223.453,499.97 215.786,502.803 210.5,511.5C 208.833,511.5 207.167,511.5 205.5,511.5C 207.962,508.536 210.629,505.703 213.5,503C 203.453,499.97 195.786,502.803 190.5,511.5C 188.833,511.5 187.167,511.5 185.5,511.5C 187.962,508.536 190.629,505.703 193.5,503C 183.453,499.97 175.786,502.803 170.5,511.5C 168.833,511.5 167.167,511.5 165.5,511.5C 167.962,508.536 170.629,505.703 173.5,503C 163.453,499.97 155.786,502.803 150.5,511.5C 148.833,511.5 147.167,511.5 145.5,511.5C 147.962,508.536 150.629,505.703 153.5,503C 149.113,502.774 144.779,502.274 140.5,501.5C 136.812,504.521 133.479,507.854 130.5,511.5C 128.833,511.5 127.167,511.5 125.5,511.5C 128.629,507.869 131.963,504.369 135.5,501C 132.127,499.879 128.961,498.379 126,496.5C 120.342,500.991 115.176,505.991 110.5,511.5C 108.833,511.5 107.167,511.5 105.5,511.5C 110.964,505.535 116.63,499.702 122.5,494C 119.882,491.894 117.882,489.394 116.5,486.5C 156.774,483.304 197.107,480.637 237.5,478.5C 250.875,489.661 263.541,488.995 275.5,476.5C 317.709,472.575 360.043,469.575 402.5,467.5 Z"/></g>
<g><path style="opacity:0.022" fill="#43443f" d="M 511.5,485.5 C 511.5,487.167 511.5,488.833 511.5,490.5C 504.167,497.167 497.167,504.167 490.5,511.5C 488.833,511.5 487.167,511.5 485.5,511.5C 493.833,502.5 502.5,493.833 511.5,485.5 Z"/></g>
<g><path style="opacity:0.022" fill="#43443f" d="M 511.5,505.5 C 511.5,507.167 511.5,508.833 511.5,510.5C 510.833,510.5 510.5,510.833 510.5,511.5C 508.833,511.5 507.167,511.5 505.5,511.5C 507.167,509.167 509.167,507.167 511.5,505.5 Z"/></g>
</svg>
